<svg width="108" height="102" viewBox="0 0 108 102" fill="none" xmlns="http://www.w3.org/2000/svg">
<g clip-path="url(#clip0_209_366)">
<path d="M72.923 62.6127C71.4711 63.9371 69.9038 65.108 68.2115 66.1253C68 65.3863 67.7788 64.6761 67.5288 63.9659C65.1346 57.171 60.6827 51.3455 54.923 47.2282C54.0865 46.6236 53.2019 46.0574 52.298 45.5295C52.173 45.4527 52.0288 45.376 51.9038 45.2992C52.3365 45.4144 52.7692 45.5391 53.1923 45.6831C54.0096 45.9422 54.8173 46.2301 55.6057 46.5468C62.4519 49.3109 68.173 54.3015 71.8461 60.6165C72.2307 61.2691 72.5865 61.9313 72.923 62.6223V62.6127Z" fill="#0A90CD"/>
<path d="M82.5766 40.7597C82.5766 48.2551 79.7881 55.098 75.1824 60.3189C74.7689 59.6855 74.3458 59.0617 73.8843 58.4475C69.49 52.5835 63.1824 48.2168 55.8843 46.2781C61.2016 41.2299 68.3939 38.13 76.317 38.13C77.6631 38.13 78.99 38.2164 80.2785 38.3891C81.0285 38.4947 81.7785 38.6195 82.5093 38.773C82.5574 39.4256 82.5862 40.0879 82.5862 40.7597H82.5766Z" fill="#82502D"/>
<path d="M63.019 68.5919C59.8748 69.7244 56.4805 70.3482 52.9421 70.3482C50.8171 70.3482 48.7402 70.1179 46.7498 69.7052C37.4613 67.7377 29.7882 61.4227 25.9613 53.0059C25.4805 51.9694 25.0671 50.8945 24.7113 49.7812C23.9709 47.5162 23.519 45.1169 23.3652 42.6408C23.3171 42.017 23.2979 41.3932 23.2979 40.7597C23.2979 40.2799 23.2979 39.7904 23.3363 39.3106C24.0767 39.1666 24.8075 39.0322 25.5575 38.9363C27.019 38.7347 28.5286 38.6292 30.0479 38.6292C35.6825 38.6292 40.9998 40.0304 45.644 42.5161C46.8555 43.1591 48.019 43.8789 49.1344 44.6754C49.4036 44.8674 49.6729 45.0593 49.9325 45.2609C51.2594 46.259 52.5094 47.3627 53.6825 48.5527C58.3459 53.3034 61.5959 59.4649 62.7017 66.3461C62.8267 67.0851 62.9229 67.8337 62.9805 68.5919H63.019Z" fill="#148742"/>
<path d="M92.4517 28.6575L82.2305 36.2874L80.2113 37.7941C78.7305 24.0604 67.0959 13.3786 52.9421 13.3786C38.7882 13.3786 27.144 24.07 25.6729 37.7941L23.7402 35.7211L15.5479 26.9588L27.2305 26.0374L27.8363 25.9895L27.6055 25.3944L23.3363 14.204L34.6536 17.4767L35.3555 17.6782V4.76026L44.2882 12.4573L44.8267 12.918L45.0478 12.2461L49.0286 0L55.0959 11.1808L63.0959 0.326308L65.0382 12.9947L75.5478 5.72958L73.5286 18.2444L85.9036 15.2597L79.6728 26.6421L92.4517 28.6575Z" fill="#FECA02"/>
<path d="M62.7593 26.2871C64.0766 26.2775 66.7978 28.3025 67.6728 28.9743C67.7401 29.0223 67.817 28.9455 67.7881 28.8687C64.8651 23.0528 61.8362 22.6785 59.8939 23.3023C58.8362 23.6478 57.942 24.3772 57.317 25.2985C56.5381 26.4406 55.0189 28.504 54.1054 28.6672C53.317 28.8015 52.6055 28.005 52.1343 27.4867C51.3651 26.6326 50.7112 25.692 49.9708 24.8187C49.5381 24.31 49.0958 23.7822 48.5189 23.4175C48.2401 23.2447 47.9324 23.1103 47.6054 23.072C47.2208 23.0336 46.8554 23.1487 46.4901 23.2735C46.1151 23.3887 45.7593 23.5326 45.3939 23.6862C44.7593 23.9549 44.1535 24.2908 43.5862 24.6747C42.692 25.2793 41.9035 26.0279 41.2689 26.9013C40.8843 27.4291 40.5478 27.9954 40.2978 28.6C40.2689 28.6768 40.2208 28.7536 40.2016 28.8303C40.192 28.8687 40.1824 28.9263 40.2401 28.9167C40.2978 28.8975 40.3458 28.8495 40.3939 28.8207C40.4708 28.7632 40.5478 28.7056 40.6343 28.648C40.7689 28.552 40.9035 28.456 41.0285 28.3601C41.2304 28.2161 41.4324 28.0721 41.6343 27.9378C41.7497 27.8514 41.8651 27.7746 41.9901 27.6883C42.1247 27.5923 42.2593 27.4867 42.4035 27.4003C45.692 25.3465 45.8074 26.6134 45.8074 26.6134V30.2315C45.692 31.0185 42.8554 33.629 42.8554 33.629H45.3266L45.2112 37.8134L41.9901 38.37C48.7593 39.0035 65.8266 38.2165 65.8266 38.2165L62.6824 37.4295C62.6824 37.4295 62.2401 29.3774 62.1343 26.9493C62.1151 26.5846 62.4035 26.2775 62.7689 26.2679L62.7593 26.2871ZM52.3458 33.4946C52.2016 35.2029 52.2016 37.5639 52.2016 37.5639H49.0189V33.677L51.2304 33.6386C51.2304 33.6386 47.8651 30.8458 49.3555 27.7362C49.3555 27.7362 51.1824 29.4158 52.6247 30.03C52.7112 30.0684 52.7689 30.1356 52.7689 30.2315C52.7881 30.7402 52.8266 32.4101 52.3843 33.3411C52.3651 33.389 52.3458 33.4274 52.3458 33.4754V33.4946ZM58.7881 37.5639H55.7208C55.7208 37.5639 56.0189 33.7921 55.3458 32.4485C55.1728 31.6615 55.2689 30.6634 55.317 30.2699C55.3266 30.1644 55.3939 30.078 55.4997 30.0396C56.0189 29.838 57.692 29.1279 58.4612 28.0242C58.5189 27.9378 58.6535 27.957 58.6631 28.0626C58.7978 29.5117 59.3074 35.5388 58.7785 37.5639H58.7881Z" fill="white"/>
<path d="M48.1148 22.1794C49.4584 22.1794 50.5475 21.0922 50.5475 19.7512C50.5475 18.4102 49.4584 17.3231 48.1148 17.3231C46.7713 17.3231 45.6821 18.4102 45.6821 19.7512C45.6821 21.0922 46.7713 22.1794 48.1148 22.1794Z" fill="white"/>
<path d="M60.0191 22.1794C61.3627 22.1794 62.4518 21.0922 62.4518 19.7512C62.4518 18.4102 61.3627 17.3231 60.0191 17.3231C58.6756 17.3231 57.5864 18.4102 57.5864 19.7512C57.5864 21.0922 58.6756 22.1794 60.0191 22.1794Z" fill="white"/>
<path d="M54.0671 27.1892C54.8531 27.1892 55.4902 26.5533 55.4902 25.7688C55.4902 24.9843 54.8531 24.3484 54.0671 24.3484C53.2812 24.3484 52.644 24.9843 52.644 25.7688C52.644 26.5533 53.2812 27.1892 54.0671 27.1892Z" fill="white"/>
<path d="M44.3748 59.2825C44.3748 59.2825 44.4806 56.4129 44.1922 55.933C43.9518 55.5203 43.1537 54.6086 41.9998 54.8869C41.6056 54.9829 41.3268 55.338 41.3268 55.7411C41.3268 56.9791 41.3268 57.9676 41.3268 57.9676L41.6345 58.8986L40.6056 58.9178L40.4998 55.3092L40.1922 55.3284C39.7691 55.3572 39.3652 55.194 39.0768 54.8773L38.8556 54.6374L37.8845 55.1172L38.6922 58.1692L37.596 58.1884L36.8845 54.9157L37.3075 53.908L35.971 55.2036L36.7402 56.9407V58.1308L35.971 58.006V56.4897L35.1633 54.9157C35.1633 54.9157 35.7498 53.6681 35.5095 52.7371C35.5095 52.7371 35.0287 54.3111 34.6152 54.3303C34.6152 54.3303 35.3845 52.7371 35.4422 51.787C35.471 51.2879 35.4422 50.8368 35.3941 50.5201C35.346 50.1842 35.4518 49.8483 35.6633 49.5796C36.0095 49.1573 36.5575 48.6295 37.1537 48.6583C38.1248 48.6967 39.9229 49.3877 40.4325 49.2437C40.9422 49.0997 41.7883 48.5815 41.7883 48.5815C41.7883 48.5815 41.0768 48.1016 41.1729 47.9001C41.2498 47.7369 41.8941 47.8137 41.8941 47.8137L42.8268 47.8905C42.8268 47.8905 41.7018 46.7484 41.9325 46.5565C42.1922 46.3357 43.0864 47.2859 43.0864 47.2859L45.3556 47.1803C45.3556 47.1803 46.1152 46.7676 46.3845 46.8444C46.4614 46.8636 46.4614 46.854 46.4518 46.9308C46.3941 47.3242 45.3364 47.9673 45.3364 47.9673L46.3845 47.9097C46.3845 47.9097 47.1345 47.6889 47.3172 48.0344C47.4998 48.3799 47.2595 48.8022 46.7498 48.8214C46.2402 48.8406 45.596 48.6199 45.5191 49.0038C45.4422 49.3877 45.2114 50.5969 45.2114 50.5969L44.5864 51.3263L45.2498 51.7678L45.0864 56.125L45.2883 59.2729H44.3556L44.3748 59.2825Z" fill="white"/>
<path d="M71.2789 46.4605C71.2789 46.4605 71.2019 46.4221 71.2019 46.3837C71.1731 41.9114 70.4231 38.6195 70.4135 38.5811C70.4039 38.5427 70.4327 38.4947 70.4712 38.4851C70.5096 38.4755 70.5577 38.5043 70.5673 38.5427C70.5673 38.5715 71.3269 41.8826 71.3558 46.3741C71.3558 46.4221 71.3173 46.4509 71.2789 46.4509V46.4605Z" fill="#E88917"/>
<path d="M72.019 45.9902C72.019 45.9902 71.942 45.9518 71.942 45.9134C71.8266 42.2952 73.9516 37.7941 73.9709 37.7461C73.9901 37.7077 74.0382 37.6885 74.0767 37.7077C74.1151 37.7269 74.1343 37.7749 74.1151 37.8133C74.0959 37.8613 71.9901 42.324 72.0959 45.9038C72.0959 45.9518 72.067 45.9806 72.019 45.9806V45.9902Z" fill="#E88917"/>
<path d="M70.8555 49.7812C70.8555 49.7812 70.8362 46.806 69.3555 44.2435C69.3555 44.2435 71.3555 46.4797 71.3555 49.4645L70.8555 49.7716V49.7812Z" fill="#F9C842"/>
<path d="M70.8558 49.8099C70.8558 49.8099 70.8558 49.8099 70.8462 49.8099C70.8462 49.8099 70.8366 49.8003 70.8366 49.7907C70.8366 49.7619 70.8077 46.7867 69.3462 44.2626C69.3462 44.253 69.3462 44.2338 69.3462 44.2242C69.3558 44.2242 69.375 44.2242 69.3847 44.2242C69.4039 44.2434 71.3847 46.5084 71.3943 49.4644C71.3943 49.4644 71.3943 49.4836 71.3846 49.4836L70.8847 49.7907C70.8847 49.7907 70.8846 49.7907 70.875 49.7907L70.8558 49.8099ZM69.5289 44.5026C70.7596 46.8059 70.8654 49.3684 70.8847 49.7427L71.3366 49.4644C71.3366 47.0746 70.0289 45.1552 69.5385 44.5026H69.5289Z" fill="#924B07"/>
<path d="M69.2886 49.4835C69.2886 49.4835 69.9713 47.756 69.5963 46.0957C69.5963 46.0957 70.3847 47.6313 69.6924 49.3684L69.2886 49.4931V49.4835Z" fill="#F9C842"/>
<path d="M69.2883 49.5124C69.2883 49.5124 69.2787 49.5124 69.269 49.5124C69.269 49.5124 69.269 49.4932 69.269 49.4836C69.269 49.4644 69.9421 47.7369 69.5767 46.1053C69.5767 46.0957 69.5767 46.0765 69.596 46.0765C69.6056 46.0765 69.6248 46.0765 69.6248 46.0861C69.6248 46.1053 70.4037 47.6505 69.721 49.378C69.721 49.378 69.721 49.3876 69.7017 49.3972L69.2979 49.522L69.2883 49.5124ZM69.6633 46.3357C69.894 47.7465 69.4325 49.1669 69.3267 49.4452L69.6633 49.3396C70.1825 48.0248 69.846 46.8251 69.6633 46.3357Z" fill="#924B07"/>
<path d="M69.1439 49.8387C69.1439 49.8387 69.4612 47.7465 68.6055 46.2686C68.6055 46.2686 69.9035 47.4106 69.567 49.5124L69.1439 49.8387Z" fill="#F9C842"/>
<path d="M69.1441 49.8675C69.1441 49.8675 69.1441 49.8675 69.1345 49.8675C69.1345 49.8675 69.1249 49.8483 69.1249 49.8387C69.1249 49.8195 69.4326 47.7465 68.5864 46.2877C68.5864 46.2781 68.5864 46.2589 68.5864 46.2589C68.596 46.2589 68.6153 46.2589 68.6249 46.2589C68.6345 46.2685 69.9326 47.4394 69.596 49.522C69.596 49.522 69.596 49.5316 69.5864 49.5412L69.1633 49.8675C69.1633 49.8675 69.1537 49.8675 69.1441 49.8675ZM68.721 46.4221C69.3845 47.7273 69.221 49.426 69.1826 49.7715L69.548 49.4932C69.8076 47.8425 69.0383 46.7868 68.721 46.4221Z" fill="#924B07"/>
<path d="M71.2497 49.6276C71.2497 49.6276 71.1728 45.5295 69.1055 41.9785C69.1055 41.9785 71.8747 45.0976 71.9324 49.2149L71.2497 49.6372V49.6276Z" fill="#FAA819"/>
<path d="M71.25 49.6564C71.25 49.6564 71.25 49.6564 71.2404 49.6564C71.2404 49.6564 71.2308 49.6468 71.2308 49.6372C71.2308 49.5988 71.1347 45.5007 69.0962 41.9977C69.0962 41.9881 69.0962 41.9689 69.0962 41.9594C69.1058 41.9594 69.125 41.9594 69.1347 41.9594C69.1635 41.9881 71.9135 45.1361 71.9712 49.2053C71.9712 49.2053 71.9712 49.2245 71.9616 49.2245L71.2789 49.6468C71.2789 49.6468 71.2789 49.6468 71.2693 49.6468L71.25 49.6564ZM69.2789 42.2281C71.0673 45.4816 71.2597 49.1285 71.2693 49.5796L71.9039 49.1861C71.8558 45.7791 69.9039 43.0247 69.2789 42.2185V42.2281Z" fill="#924B07"/>
<path d="M72.6921 47.497C72.6921 47.497 72.846 42.3912 75.7017 37.6213C75.7017 37.6213 71.894 41.9689 71.769 47.0939L72.6921 47.497Z" fill="#FAA819"/>
<path d="M72.6922 47.5258C72.6922 47.5258 72.6922 47.5258 72.6825 47.5258L71.7595 47.1227C71.7595 47.1227 71.7402 47.1131 71.7402 47.0939C71.8075 44.445 72.8748 42.0073 73.7595 40.4238C74.721 38.7155 75.6729 37.6118 75.6825 37.6022C75.6825 37.5926 75.7114 37.5926 75.721 37.6022C75.7306 37.6022 75.7306 37.6214 75.721 37.6406C72.8941 42.3432 72.721 47.449 72.7114 47.497C72.7114 47.497 72.7114 47.5162 72.7018 47.5162C72.7018 47.5162 72.7018 47.5162 72.6922 47.5162V47.5258ZM71.7979 47.0843L72.6729 47.4682C72.6922 46.9979 72.971 42.324 75.5191 37.9093C75.1825 38.3316 74.4999 39.2433 73.8075 40.4622C72.9229 42.0361 71.8652 44.4546 71.7979 47.0843Z" fill="#924B07"/>
<path d="M76.6536 50.3282C76.6536 50.3282 75.4132 47.401 75.6247 44.09C75.6247 44.09 74.8363 47.3626 76.0863 50.2994L76.6536 50.3378V50.3282Z" fill="#FAA819"/>
<path d="M76.6539 50.357L76.0866 50.3186C76.0866 50.3186 76.0674 50.3186 76.0674 50.2994C74.827 47.3914 75.5963 44.1091 75.6059 44.0804C75.6059 44.0708 75.6251 44.0612 75.6347 44.0612C75.6443 44.0612 75.6539 44.0708 75.6539 44.0899C75.452 47.353 76.6636 50.2898 76.6828 50.3186C76.6828 50.3186 76.6828 50.3378 76.6828 50.3474C76.6828 50.3474 76.6732 50.357 76.6636 50.357H76.6539ZM76.1059 50.2706L76.6155 50.2994C76.4809 49.9539 75.4905 47.3722 75.5866 44.4451C75.4232 45.3664 75.1155 47.9385 76.1059 50.2706Z" fill="#924B07"/>
<path d="M76.5286 50.3953C76.5286 50.3953 74.6248 47.4777 74.2017 43.8691C74.2017 43.8691 73.9902 47.5545 75.9132 50.4721L76.5286 50.3953Z" fill="#F9C842"/>
<path d="M75.9136 50.4914C75.9136 50.4914 75.8943 50.4914 75.8943 50.4818C73.9905 47.593 74.1732 43.9076 74.1732 43.8692C74.1732 43.8596 74.1828 43.8405 74.202 43.8405C74.2117 43.8405 74.2309 43.8501 74.2309 43.8596C74.6443 47.4202 76.5386 50.3474 76.5578 50.3762C76.5578 50.3762 76.5578 50.3954 76.5578 50.405C76.5578 50.405 76.5482 50.4146 76.5386 50.4242L75.9232 50.501L75.9136 50.4914ZM74.2213 44.2243C74.2213 45.2129 74.3847 48.0921 75.9232 50.4434L76.4809 50.3762C76.2693 50.0403 74.6828 47.4298 74.2117 44.2243H74.2213Z" fill="#924B07"/>
<path d="M74.8942 49.474C74.8942 49.474 73.9326 47.8713 74.0095 45.7023C74.0095 45.7023 73.5192 47.9768 74.4903 49.5796L74.9038 49.474H74.8942Z" fill="#FAA819"/>
<path d="M74.4805 49.6084C74.4805 49.6084 74.4613 49.6084 74.4613 49.5988C73.4998 48.0057 73.9805 45.7311 73.9805 45.7023C73.9805 45.6927 73.9998 45.6831 74.0094 45.6831C74.019 45.6831 74.0286 45.6927 74.0286 45.7119C73.9613 47.8425 74.9036 49.4548 74.9132 49.4644V49.4836C74.9132 49.4836 74.9036 49.4932 74.894 49.5028L74.4805 49.6084ZM73.9805 46.0478C73.8844 46.7388 73.7786 48.3416 74.4998 49.5508L74.8555 49.4644C74.7305 49.2437 74.0094 47.8713 73.9805 46.0478Z" fill="#924B07"/>
<path d="M74.7593 49.7524C74.7593 49.7524 73.6151 48.2744 73.442 46.115C73.442 46.115 73.2208 48.4279 74.3651 49.9059L74.7593 49.7524Z" fill="#F9C842"/>
<path d="M74.3653 49.9346C74.3653 49.9346 74.3461 49.9346 74.3461 49.925C73.2018 48.4566 73.4134 46.1341 73.4134 46.1149C73.4134 46.1053 73.423 46.0957 73.4422 46.0957C73.4422 46.0957 73.4711 46.1053 73.4711 46.1245C73.6538 48.2551 74.7787 49.7331 74.7884 49.7523V49.7715C74.7884 49.7715 74.7884 49.7811 74.7691 49.7907L74.3749 49.9442L74.3653 49.9346ZM73.4518 46.4508C73.4422 47.1418 73.5191 48.7542 74.3749 49.8674L74.7211 49.7331C74.5768 49.5315 73.6922 48.2551 73.4518 46.4508Z" fill="#924B07"/>
<path d="M73.144 49.426C73.144 49.426 72.519 46.4028 74.6536 42.5255C74.6536 42.5255 71.5094 46.5372 72.1632 49.5603L73.144 49.4356V49.426Z" fill="#F9C842"/>
<path d="M72.1539 49.5795C72.1539 49.5795 72.1347 49.5795 72.125 49.5604C71.4808 46.566 74.5866 42.5447 74.625 42.5063C74.625 42.4967 74.6443 42.4967 74.6635 42.5063C74.6731 42.5063 74.6827 42.5255 74.6635 42.5447C72.5577 46.3741 73.1539 49.3972 73.1635 49.426V49.4452C73.1635 49.4452 73.1539 49.4548 73.1443 49.4548L72.1635 49.5795H72.1539ZM74.452 42.8231C73.7597 43.7924 71.6539 47.0171 72.1731 49.522L73.1058 49.3972C73.0481 49.0901 72.6443 46.3261 74.452 42.8231Z" fill="#924B07"/>
<path d="M72.8751 49.7427C72.8751 49.7427 71.3367 45.8654 72.404 41.0092C72.404 41.0092 70.3174 45.9901 71.8847 49.8675L72.8751 49.7523V49.7427Z" fill="#F9C842"/>
<path d="M71.8847 49.8867C71.8847 49.8867 71.8654 49.8867 71.8558 49.8675C71.0481 47.8617 71.2308 45.5487 71.5193 43.9748C71.8366 42.2665 72.3654 41.0092 72.3654 40.99C72.3654 40.9804 72.3847 40.9708 72.3943 40.9708C72.4039 40.9708 72.4135 40.99 72.4135 40.9996C71.3558 45.7983 72.8654 49.6852 72.8847 49.7236V49.7428C72.8847 49.7428 72.875 49.7523 72.8654 49.7523L71.875 49.8675L71.8847 49.8867ZM72.3077 41.3163C72.1346 41.7866 71.8077 42.7751 71.577 43.9844C71.2789 45.5583 71.0962 47.8425 71.8943 49.8291L72.827 49.714C72.6923 49.3397 71.4231 45.7503 72.2981 41.3163H72.3077Z" fill="#924B07"/>
<path d="M76.3077 33.9264C76.1731 33.984 76.0577 34.08 75.9519 34.1855C75.9423 34.1855 75.9327 34.1855 75.9135 34.1855C76.125 33.7345 76.0962 33.293 76.0577 33.0818C76.1154 32.9667 76.1827 32.8515 76.2308 32.7267C76.2404 32.7075 76.2116 32.6788 76.1923 32.6979C76.1346 32.7651 76.0769 32.8515 76.0193 32.9283C76.0193 32.9283 76 32.9187 75.9904 32.9283C75.9904 32.9283 75.9808 32.9283 75.9712 32.9283C76.1346 32.458 76.0577 31.9398 76.0289 31.7862C76.0962 31.6614 76.1539 31.5367 76.2212 31.4119C76.2404 31.3735 76.1827 31.3447 76.1635 31.3831C76.1058 31.4887 76.0385 31.5943 75.9808 31.7094C75.9808 31.3351 75.8654 30.932 75.8077 30.7401C75.8558 30.5961 75.9039 30.4522 75.9712 30.3082C75.9904 30.2698 75.9327 30.2506 75.9135 30.2794C75.8558 30.385 75.8077 30.4906 75.7596 30.6057C75.7596 30.6057 75.75 30.6057 75.7404 30.6057C75.6827 30.0107 75.2404 29.3389 75.2116 29.3101C75.2116 29.1757 75.2116 29.051 75.2116 28.9166C75.2116 28.8878 75.1635 28.8878 75.1635 28.9166C75.1635 29.0606 75.1539 29.2045 75.1443 29.3389C74.9327 29.598 74.7789 29.9627 74.7019 30.3754C74.6923 30.3754 74.6827 30.3658 74.6827 30.3658C74.6731 30.3658 74.6539 30.3658 74.6443 30.3658C74.6058 30.2602 74.5577 30.1643 74.5 30.0587C74.4808 30.0299 74.4423 30.0587 74.4519 30.0875C74.5096 30.1931 74.5577 30.3082 74.5962 30.4234C74.4519 30.6633 74.4039 31.0088 74.3846 31.2392C74.3846 31.2392 74.3846 31.2392 74.375 31.2392C74.3366 31.1336 74.2981 31.028 74.25 30.932C74.2404 30.9129 74.2019 30.932 74.2116 30.9416C74.2596 31.0472 74.2981 31.1624 74.3269 31.2775C74.0962 31.5463 74.0673 31.9206 74.0866 32.1797H74.0769C74.0673 32.1797 74.0481 32.1797 74.0481 32.1797C73.9904 32.0837 73.9327 31.9973 73.8654 31.911C73.8462 31.8822 73.8077 31.911 73.8269 31.9398C73.8943 32.0357 73.9519 32.1317 74.0096 32.2373C73.8366 32.5156 73.8269 32.7843 73.8462 32.9667H73.8366H73.8173C73.8173 32.9667 73.8077 32.9667 73.7981 32.9859C73.7981 32.9859 73.7981 32.9955 73.7981 33.0051C73.7404 32.9091 73.6827 32.8227 73.6154 32.7267C73.5962 32.7075 73.5577 32.7267 73.5769 32.7555C73.6443 32.8611 73.7116 32.9571 73.7693 33.0722C73.6154 33.4945 73.6635 34.1087 73.7019 34.4255C73.6923 34.4255 73.6827 34.4159 73.6731 34.4159C73.6154 34.3103 73.5577 34.2047 73.5096 34.0992C73.4904 34.0704 73.4423 34.0896 73.4616 34.1183C73.5096 34.2335 73.5673 34.3487 73.625 34.4638C73.5866 34.579 73.4519 35.0397 73.5193 35.5387C73.4616 35.4524 73.3943 35.366 73.3366 35.2796C73.3173 35.2508 73.2693 35.2796 73.2885 35.3084C73.3654 35.414 73.4423 35.5291 73.5 35.6347C73.3654 35.8363 73.3462 36.0762 73.3558 36.2585C73.3558 36.2585 73.3462 36.2585 73.3366 36.2777C73.1731 36.7288 73.3077 37.2279 73.4808 37.535C73.625 37.7845 73.8077 37.9669 73.9808 37.9957C74.0193 37.9957 74.0577 38.0052 74.0962 38.0148C74.875 38.0532 75.4039 36.7576 75.4231 36.7V36.6808C75.4231 36.6808 75.4135 36.6712 75.4039 36.6712H75.3846C75.3846 36.6712 75.3462 36.6712 75.3269 36.6712C75.5769 36.2681 75.6635 35.7883 75.6923 35.5675C75.6923 35.5675 75.6923 35.5675 75.7019 35.5579C75.7789 35.4716 75.875 35.4044 75.9519 35.3276C75.9712 35.3084 75.9519 35.2796 75.9231 35.2892C75.8462 35.318 75.7693 35.3756 75.7019 35.4332C75.7019 35.4332 75.7019 35.4332 75.7019 35.4236C75.8558 35.0301 75.9616 34.4351 75.9808 34.2815C76.0769 34.1759 76.1827 34.08 76.3173 34.0128C76.3558 33.9936 76.3366 33.936 76.2981 33.9552L76.3077 33.9264ZM75.6539 35.3948C75.25 35.4428 74.9039 35.6443 74.6539 35.8555C74.6539 35.6731 74.6346 35.4428 74.5385 35.2124C74.6923 34.9341 75.1635 34.2527 75.9423 34.2335C75.9231 34.3775 75.8173 35.0013 75.6539 35.3948ZM75.6731 35.4428C75.6635 35.5867 75.5866 36.1722 75.2885 36.6424C74.8462 36.6616 74.5193 36.9016 74.3366 37.0743C74.4039 36.7864 74.3654 36.5369 74.2789 36.3257C74.4519 36.0954 74.9616 35.5196 75.6731 35.4428ZM74.1154 37.9381C74.1154 37.9381 74.0481 37.9381 74.0096 37.9285C73.8558 37.8997 73.6827 37.7269 73.5481 37.487C73.3846 37.1895 73.2596 36.7288 73.3943 36.2969C73.5096 36.3737 73.9712 36.7192 74.1635 37.2854C74.1635 37.2854 74.1731 37.3046 74.1827 37.3046C74.1923 37.3046 74.2019 37.3046 74.2116 37.295C74.2116 37.295 74.6635 36.6712 75.3846 36.6904C75.2981 36.9016 74.7981 37.9669 74.125 37.9381H74.1154ZM73.5769 35.6155C73.7116 35.7019 74.5385 36.2489 74.2596 37.1511C74.2308 37.1799 74.2116 37.2087 74.1923 37.2279C74 36.6904 73.5673 36.3545 73.4327 36.2681C73.4135 36.0858 73.4327 35.8267 73.5769 35.6155ZM73.6827 34.4543C74.5193 34.8477 74.625 35.5004 74.6058 35.9034C74.4423 36.0474 74.3269 36.1818 74.25 36.2777C74.0577 35.8651 73.6731 35.6155 73.5962 35.5675C73.5 35.0685 73.6443 34.579 73.6827 34.4543ZM74.0962 32.2373C74.2308 32.3141 74.9808 32.7651 74.9616 33.6001C74.8558 33.7249 74.7693 33.84 74.7019 33.9264C74.4712 33.4849 74.0866 33.149 73.9231 33.0243C73.8943 32.8515 73.8846 32.5444 74.0962 32.2373ZM74.3943 31.3063C74.5096 31.3831 75.0962 31.815 75.1635 32.4292C75.0193 32.602 74.9135 32.7747 74.8366 32.8899C74.6346 32.5252 74.3077 32.2949 74.1635 32.2085C74.1443 31.959 74.1635 31.5655 74.3943 31.2967V31.3063ZM75.6923 30.6249C75.5577 30.6921 75.4327 30.8169 75.3269 30.9512C75.1635 30.6921 74.8846 30.481 74.75 30.3946C74.8173 29.9819 74.9712 29.6172 75.1827 29.3581C75.2693 29.4925 75.6346 30.0971 75.6827 30.6249H75.6923ZM75.9423 31.7478C75.6635 31.8918 75.4135 32.1317 75.2116 32.3716C75.1731 32.1413 75.0769 31.9302 74.9519 31.767C75.0673 31.4791 75.3558 30.8553 75.75 30.6633C75.7885 30.7881 75.9616 31.2967 75.9519 31.7478H75.9423ZM74.875 34.6846C74.8943 34.4351 74.8269 34.1951 74.7212 33.984C74.9327 33.6865 75.4039 33.101 75.9904 32.9763C76.0193 33.0914 76.1346 33.6385 75.8654 34.1855C75.4423 34.2239 75.1154 34.4447 74.875 34.6846ZM75.0096 33.5425C75.0096 33.3122 74.9519 33.1202 74.8654 32.9475C75.0481 32.6596 75.4712 32.0261 75.9904 31.7766C76.0193 31.911 76.1058 32.458 75.9231 32.9379C75.5577 33.0339 75.2404 33.2834 75.0096 33.5329V33.5425ZM75.2981 30.9992C75.1154 31.2488 74.9808 31.5367 74.9039 31.719C74.7308 31.4887 74.5289 31.3351 74.4423 31.2775C74.4616 31.0472 74.5096 30.6441 74.6827 30.4138C74.7693 30.4714 75.125 30.7017 75.2981 30.9992ZM74.8173 34.7422C74.6731 34.8957 74.5769 35.0493 74.5096 35.1549C74.3846 34.8957 74.1635 34.6366 73.7693 34.4351C73.7308 34.1183 73.6731 33.4561 73.8366 33.0339C74 33.1586 74.9135 33.888 74.8077 34.7422H74.8173Z" fill="#924B07"/>
<path d="M74.7593 30.3945C74.8939 30.4809 75.1727 30.6921 75.3362 30.9512C75.442 30.8168 75.567 30.6921 75.7016 30.6249C75.6535 30.1066 75.2881 29.502 75.2016 29.358C74.99 29.6172 74.8362 29.9819 74.7689 30.3945H74.7593Z" fill="#F9C842"/>
<path d="M74.6828 30.4138C74.5193 30.6442 74.4616 31.0472 74.4424 31.2776C74.5289 31.3352 74.7308 31.4887 74.9039 31.719C74.9808 31.5367 75.1155 31.2488 75.2982 30.9993C75.1155 30.7017 74.7693 30.4618 74.6828 30.4138Z" fill="#F9C842"/>
<path d="M74.9422 31.767C75.0672 31.9398 75.173 32.1413 75.2018 32.3716C75.4038 32.1317 75.6538 31.8822 75.9326 31.7478C75.9422 31.2968 75.7788 30.7881 75.7307 30.6633C75.3461 30.8553 75.048 31.4791 74.9326 31.767H74.9422Z" fill="#F9C842"/>
<path d="M74.827 32.89C74.9039 32.7652 75.0193 32.602 75.1539 32.4293C75.0962 31.8151 74.5001 31.3832 74.3847 31.3064C74.1443 31.5751 74.1347 31.9686 74.1539 32.2181C74.2982 32.3045 74.6155 32.5253 74.827 32.8995V32.89Z" fill="#F9C842"/>
<path d="M75.9902 31.7766C75.471 32.0261 75.0383 32.65 74.8652 32.9475C74.9518 33.1202 75.0095 33.3122 75.0095 33.5425C75.2402 33.293 75.5575 33.0339 75.9229 32.9475C76.1056 32.4676 76.0191 31.9206 75.9902 31.7862V31.7766Z" fill="#F9C842"/>
<path d="M74.6921 33.9264C74.7594 33.8305 74.846 33.7153 74.9517 33.6001C74.971 32.7652 74.221 32.3141 74.0864 32.2373C73.8748 32.5444 73.8844 32.8515 73.9133 33.0243C74.0767 33.149 74.4613 33.485 74.6921 33.9264Z" fill="#F9C842"/>
<path d="M75.9904 32.9763C75.4039 33.1011 74.9327 33.6865 74.7212 33.984C74.827 34.1952 74.8943 34.4351 74.875 34.6846C75.1154 34.4447 75.4423 34.224 75.8654 34.1856C76.1347 33.6385 76.0193 33.1011 75.9904 32.9763Z" fill="#F9C842"/>
<path d="M73.8364 33.0338C73.6633 33.4561 73.721 34.1279 73.769 34.435C74.1633 34.6366 74.3844 34.8957 74.5094 35.1548C74.5767 35.0492 74.6729 34.8957 74.8171 34.7421C74.9133 33.888 74.0094 33.1586 73.846 33.0338H73.8364Z" fill="#F9C842"/>
<path d="M74.5386 35.2124C74.6347 35.4428 74.6636 35.6731 74.654 35.8555C74.904 35.6443 75.2501 35.4428 75.654 35.3948C75.8174 35.0013 75.9232 34.3775 75.9424 34.2335C75.1636 34.2527 74.6924 34.9437 74.5386 35.2124Z" fill="#F9C842"/>
<path d="M73.596 35.5675C73.6729 35.6155 74.0575 35.865 74.2498 36.2777C74.3267 36.1817 74.4421 36.0474 74.6056 35.9034C74.6344 35.5099 74.5286 34.8477 73.6825 34.4542C73.644 34.5694 73.4998 35.0589 73.596 35.5675Z" fill="#F9C842"/>
<path d="M74.269 36.3257C74.3556 36.5368 74.394 36.7864 74.3267 37.0743C74.5094 36.9015 74.846 36.6616 75.2787 36.6424C75.5864 36.1817 75.6537 35.5867 75.6633 35.4427C74.9517 35.5195 74.4421 36.105 74.269 36.3257Z" fill="#F9C842"/>
<path d="M74.1824 37.2278C74.1824 37.2278 74.2209 37.1798 74.2497 37.151C74.5286 36.2489 73.7113 35.7019 73.567 35.6155C73.4132 35.817 73.4036 36.0857 73.4228 36.2681C73.5574 36.3641 73.9805 36.6904 74.1824 37.2278Z" fill="#F9C842"/>
<path d="M74.202 37.295C74.202 37.295 74.1827 37.3046 74.1731 37.3046C74.1635 37.3046 74.1539 37.3046 74.1539 37.2854C73.9616 36.7096 73.5097 36.3737 73.3847 36.2969C73.2501 36.7192 73.3751 37.1894 73.5385 37.4869C73.6731 37.7269 73.8462 37.89 74.0001 37.9284C74.0385 37.9284 74.0674 37.938 74.1058 37.938C74.7789 37.9668 75.2789 36.9015 75.3654 36.6904C74.6347 36.6712 74.1924 37.2854 74.1924 37.295H74.202Z" fill="#F9C842"/>
<path d="M75.692 30.6249C75.692 30.5289 75.6631 30.433 75.6439 30.337C75.6054 30.4138 75.567 30.4809 75.49 30.5193C75.3939 30.5769 75.2785 30.5673 75.1824 30.5193C75.0862 30.4713 75.0093 30.3946 74.942 30.3082C74.8939 30.241 74.8554 30.1738 74.8266 30.097C74.7977 30.193 74.7785 30.289 74.7593 30.385C74.8939 30.4713 75.1727 30.6825 75.3362 30.9416C75.442 30.8072 75.567 30.6825 75.7016 30.6153L75.692 30.6249Z" fill="#FAA819"/>
<path d="M75.9422 31.7478C75.9422 31.6422 75.9422 31.5462 75.923 31.4407C75.8653 31.5079 75.8076 31.5654 75.7307 31.6134C75.6057 31.7094 75.4422 31.7766 75.2788 31.7382C75.173 31.7094 75.0769 31.623 75.048 31.5175C74.9999 31.6134 74.9615 31.6998 74.9326 31.7766C75.0576 31.9493 75.1634 32.1509 75.1922 32.3812C75.3942 32.1413 75.6442 31.8917 75.923 31.7574L75.9422 31.7478Z" fill="#FAA819"/>
<path d="M74.9134 31.719C74.9903 31.5367 75.1249 31.2487 75.3076 30.9992C75.2691 30.9416 75.2307 30.8936 75.1922 30.8361C75.1633 30.9608 75.096 31.076 74.9903 31.1432C74.8749 31.22 74.7307 31.2391 74.596 31.2199C74.548 31.2199 74.4999 31.2008 74.4614 31.1816C74.4614 31.22 74.4614 31.2487 74.4614 31.2775C74.548 31.3351 74.7499 31.4887 74.923 31.719H74.9134Z" fill="#FAA819"/>
<path d="M75.971 32.7843C75.7402 32.8803 75.4806 32.9186 75.2306 32.8707C75.1825 32.8707 75.1345 32.8515 75.1056 32.8227C75.0575 32.7843 75.0479 32.7363 75.0479 32.6787C74.971 32.7843 74.9037 32.8803 74.8652 32.957C74.9518 33.1298 75.0095 33.3217 75.0095 33.5521C75.2402 33.3025 75.5575 33.0434 75.9229 32.957C75.9422 32.909 75.9614 32.8515 75.971 32.7939V32.7843Z" fill="#FAA819"/>
<path d="M75.0865 32.1221C75.0673 32.1989 75.0288 32.266 74.9711 32.314C74.8077 32.4388 74.5673 32.3812 74.3942 32.266C74.3077 32.2085 74.2307 32.1413 74.1538 32.0741C74.1538 32.1221 74.1538 32.1701 74.1538 32.2085C74.298 32.2948 74.6153 32.5156 74.8269 32.8899C74.9038 32.7651 75.0192 32.602 75.1538 32.4292C75.1442 32.3236 75.1153 32.2181 75.0769 32.1317L75.0865 32.1221Z" fill="#FAA819"/>
<path d="M75.9327 34.0128C75.7693 34.0992 75.5866 34.1376 75.3943 34.128C75.2693 34.128 75.1347 34.0896 75.0385 34.0032C74.952 33.9264 74.9135 33.8209 74.9231 33.7057C74.8366 33.8017 74.7693 33.8976 74.7212 33.9744C74.827 34.1856 74.8943 34.4255 74.875 34.675C75.1154 34.4351 75.4423 34.2143 75.8654 34.176C75.8943 34.1184 75.9135 34.0608 75.9423 34.0032L75.9327 34.0128Z" fill="#FAA819"/>
<path d="M74.9519 33.6001C74.9519 33.4466 74.9327 33.3026 74.8942 33.1683C74.8653 33.2067 74.8365 33.2354 74.798 33.2642C74.7403 33.3026 74.6634 33.3122 74.5865 33.3122C74.4327 33.3026 74.2788 33.2258 74.1538 33.1395C74.0577 33.0723 73.9807 32.9859 73.9038 32.8995C73.9038 32.9475 73.9038 32.9955 73.9134 33.0339C74.0769 33.1587 74.4615 33.4946 74.6923 33.936C74.7596 33.8401 74.8461 33.7249 74.9519 33.6097V33.6001Z" fill="#FAA819"/>
<path d="M75.7213 35.2028C75.5001 35.2796 75.2693 35.3084 75.0482 35.2508C74.9809 35.2316 74.904 35.2028 74.8559 35.1548C74.779 35.0877 74.7501 34.9821 74.7597 34.8861C74.6636 35.0109 74.5867 35.126 74.5386 35.2028C74.6347 35.4332 74.6636 35.6635 74.654 35.8458C74.904 35.6347 75.2501 35.4332 75.654 35.3852C75.6732 35.3276 75.702 35.2604 75.7213 35.1932V35.2028Z" fill="#FAA819"/>
<path d="M74.7692 34.2527C74.7692 34.2527 74.7019 34.3295 74.6635 34.3679C74.5673 34.4543 74.4615 34.5406 74.3269 34.5502C74.2212 34.5502 74.1154 34.5118 74.0288 34.4543C73.9327 34.3967 73.8365 34.3199 73.75 34.2335C73.75 34.3103 73.7692 34.3871 73.7692 34.4447C74.1635 34.6462 74.3846 34.9053 74.5096 35.1645C74.5769 35.0589 74.6731 34.9053 74.8173 34.7518C74.8365 34.579 74.8173 34.4159 74.7692 34.2623V34.2527Z" fill="#FAA819"/>
<path d="M75.423 36.3833C75.2403 36.4697 75.048 36.5273 74.8557 36.4889C74.7692 36.4793 74.6923 36.4409 74.6346 36.3833C74.5673 36.3065 74.5384 36.201 74.548 36.0954C74.548 36.0666 74.548 36.0378 74.5673 36.009C74.4423 36.1338 74.3461 36.249 74.2788 36.3257C74.3653 36.5369 74.4038 36.7864 74.3365 37.0743C74.5192 36.9016 74.8557 36.6616 75.2884 36.6425C75.3461 36.5561 75.3942 36.4697 75.4327 36.3833H75.423Z" fill="#FAA819"/>
<path d="M73.5962 35.5676C73.6732 35.6155 74.0578 35.8651 74.2501 36.2778C74.327 36.1818 74.4424 36.0474 74.6058 35.9035C74.6058 35.7979 74.6058 35.6827 74.5866 35.5484C74.5289 35.6155 74.4712 35.6731 74.3847 35.7019C74.2212 35.7691 74.0289 35.7019 73.8751 35.6155C73.7597 35.5484 73.6635 35.4524 73.5674 35.3756C73.5674 35.4428 73.577 35.51 73.5962 35.5772V35.5676Z" fill="#FAA819"/>
<path d="M74.2978 36.6233C74.2978 36.6233 74.2017 36.6233 74.1632 36.6233C73.9902 36.6041 73.8363 36.5177 73.7113 36.4026C73.6055 36.3066 73.5094 36.1818 73.4229 36.0667C73.4229 36.1338 73.4229 36.201 73.4229 36.2586C73.5575 36.3546 73.9805 36.6809 74.1825 37.2183C74.2017 37.1991 74.2209 37.1703 74.2498 37.1415C74.3075 36.9496 74.3171 36.7768 74.2978 36.6233Z" fill="#FAA819"/>
<path d="M74.9901 37.3718C74.9901 37.3718 74.9709 37.391 74.9612 37.4006C74.7978 37.5445 74.6151 37.6693 74.4035 37.7173C74.1728 37.7653 73.9132 37.6885 73.7401 37.5253C73.6632 37.4582 73.6055 37.3718 73.5478 37.295C73.4805 37.1894 73.4132 37.0743 73.3555 36.9591C73.3939 37.1606 73.4612 37.343 73.5478 37.487C73.6824 37.7269 73.8555 37.89 74.0093 37.9284C74.0478 37.9284 74.0766 37.938 74.1151 37.938C74.4709 37.9572 74.7689 37.6693 74.9901 37.3718Z" fill="#FAA819"/>
<path d="M75.3844 29.8476C75.3652 29.79 75.346 29.742 75.3171 29.6844C75.2979 29.6269 75.269 29.5597 75.2306 29.5117C75.2017 29.4829 75.1633 29.5117 75.1729 29.5501C75.2017 29.6077 75.221 29.6748 75.2402 29.7324C75.2594 29.79 75.2787 29.838 75.3171 29.8764C75.346 29.9052 75.394 29.8764 75.3844 29.8476Z" fill="#FDF498"/>
<path d="M75.4424 30.1072C75.4424 30.1072 75.4424 30.0782 75.4424 30.0589C75.4424 30.0107 75.3651 30.0203 75.3845 30.0589C75.3845 30.0782 75.4038 30.0975 75.4134 30.1168C75.4231 30.1361 75.4618 30.1265 75.4618 30.0975L75.4424 30.1072Z" fill="#FDF498"/>
<path d="M75.7019 30.8457C75.7019 30.8457 75.625 30.8169 75.6346 30.8649C75.6346 30.9225 75.6731 30.9801 75.6923 31.0377C75.7019 31.0665 75.7596 31.0569 75.7596 31.0185C75.7596 30.9513 75.7212 30.9129 75.7019 30.8457Z" fill="#FDF498"/>
<path d="M74.7404 30.5865C74.7404 30.5865 74.7404 30.5673 74.7212 30.5577C74.7019 30.5577 74.6923 30.5577 74.6827 30.5673C74.6827 30.5673 74.6827 30.5865 74.6731 30.5961C74.6731 30.6153 74.6635 30.6345 74.6539 30.6537C74.6346 30.6921 74.625 30.7305 74.6346 30.7785C74.6346 30.8169 74.6923 30.8169 74.7115 30.7785C74.7308 30.7401 74.7404 30.7017 74.75 30.6537C74.75 30.6345 74.7596 30.6153 74.75 30.5865H74.7404Z" fill="#FDF498"/>
<path d="M74.423 31.4886C74.423 31.4886 74.3557 31.5558 74.3365 31.5942C74.3172 31.6422 74.2884 31.6998 74.3076 31.7478C74.3172 31.7862 74.3653 31.7862 74.3845 31.7478C74.4038 31.7094 74.4038 31.671 74.4134 31.6326C74.423 31.5942 74.4518 31.5654 74.4615 31.527C74.4711 31.4982 74.4422 31.4694 74.4134 31.4886H74.423Z" fill="#FDF498"/>
<path d="M75.9615 32.0069C75.9615 31.959 75.8942 31.959 75.8845 32.0069C75.8653 32.1221 75.8653 32.2469 75.8845 32.362C75.8845 32.4004 75.9518 32.4004 75.9615 32.362C75.9807 32.2469 75.9711 32.1221 75.9615 32.0069Z" fill="#FDF498"/>
<path d="M74.0862 32.3716C74.0381 32.4484 74.0189 32.5444 74.0093 32.6308C74.0093 32.6596 74.0574 32.6788 74.0766 32.65C74.115 32.5732 74.1343 32.4868 74.1535 32.4004C74.1535 32.362 74.1054 32.3333 74.0862 32.3716Z" fill="#FDF498"/>
<path d="M73.8847 33.2833C73.7981 33.3601 73.8077 33.5521 73.827 33.6576C73.827 33.696 73.8847 33.696 73.9039 33.6576C73.9231 33.6 73.9135 33.5425 73.9039 33.4945C73.9039 33.4273 73.9039 33.3793 73.9328 33.3217C73.9328 33.2929 73.9039 33.2641 73.8847 33.2929V33.2833Z" fill="#FDF498"/>
<path d="M73.9039 33.8016C73.9039 33.8016 73.8462 33.7632 73.8462 33.8016C73.8462 33.8304 73.8462 33.8688 73.8462 33.8976C73.8462 33.9168 73.8846 33.9264 73.8943 33.8976C73.9039 33.8688 73.8943 33.8304 73.8943 33.8016H73.9039Z" fill="#FDF498"/>
<path d="M75.9424 33.2066C75.9424 33.1491 75.8654 33.1491 75.8558 33.2066C75.8462 33.293 75.8366 33.3794 75.8558 33.4658C75.8558 33.5042 75.9328 33.5138 75.9424 33.4658C75.9616 33.3794 75.952 33.293 75.9424 33.2066Z" fill="#FDF498"/>
<path d="M75.8654 33.6481C75.8654 33.6481 75.8462 33.7057 75.8462 33.7345C75.8462 33.7633 75.8847 33.7729 75.9039 33.7537C75.9231 33.7249 75.9327 33.6961 75.9327 33.6577C75.9327 33.6193 75.875 33.6097 75.8654 33.6481Z" fill="#FDF498"/>
<path d="M73.7786 34.7421C73.7786 34.7421 73.7402 34.7134 73.7209 34.7325C73.6728 34.7997 73.6729 34.9149 73.6729 35.0013C73.6729 35.0397 73.7305 35.0493 73.7402 35.0109C73.7498 34.9629 73.7594 34.9245 73.7594 34.8765C73.7594 34.8285 73.7786 34.7901 73.769 34.7421H73.7786Z" fill="#FDF498"/>
<path d="M73.6442 35.1934C73.6442 35.1934 73.6442 35.2127 73.6442 35.232C73.6442 35.261 73.6925 35.261 73.7022 35.232C73.7022 35.2224 73.7022 35.2127 73.7022 35.2031C73.7119 35.1452 73.6249 35.1452 73.6345 35.2031L73.6442 35.1934Z" fill="#FDF498"/>
<path d="M75.7501 34.4062C75.7501 34.5022 75.7116 34.5886 75.6924 34.6845C75.6924 34.7229 75.7405 34.7517 75.7597 34.7133C75.8078 34.6174 75.8366 34.5214 75.8366 34.4062C75.8366 34.3486 75.7597 34.3486 75.7501 34.4062Z" fill="#FDF498"/>
<path d="M73.8748 36.105C73.8363 35.9898 73.7786 35.865 73.6825 35.7883C73.6536 35.7595 73.6055 35.7978 73.6344 35.8362C73.7017 35.9322 73.7402 36.0378 73.8075 36.1338C73.8267 36.1625 73.8844 36.1529 73.8748 36.105Z" fill="#FDF498"/>
<path d="M75.1824 35.7211C75.0574 35.7211 74.9612 35.8843 74.9035 35.9802C74.8747 36.0282 74.942 36.0666 74.9708 36.0186C75.0093 35.9706 75.0477 35.9323 75.0862 35.8843C75.1247 35.8459 75.1728 35.8171 75.2112 35.7787C75.2304 35.7595 75.2208 35.7019 75.1824 35.7115V35.7211Z" fill="#FDF498"/>
<path d="M75.3845 35.6251C75.3845 35.6251 75.3268 35.6251 75.2979 35.6443C75.2499 35.6827 75.3172 35.7499 75.3556 35.7115C75.3749 35.6923 75.3845 35.6827 75.3941 35.6539C75.3941 35.6443 75.3941 35.6347 75.3749 35.6251H75.3845Z" fill="#FDF498"/>
<path d="M73.7885 36.9495C73.7596 36.8919 73.7308 36.8439 73.6923 36.7863C73.6442 36.7192 73.6154 36.6616 73.5769 36.5848C73.5577 36.556 73.5192 36.5752 73.5289 36.604C73.5289 36.6712 73.5769 36.7288 73.6154 36.7863C73.6539 36.8535 73.7019 36.9111 73.75 36.9783C73.7692 37.0071 73.8173 36.9783 73.8077 36.9399L73.7885 36.9495Z" fill="#FDF498"/>
<path d="M74.9997 36.8248C74.8266 36.8248 74.692 36.9688 74.6055 37.1127C74.5863 37.1415 74.6343 37.1895 74.6632 37.1607C74.7113 37.1032 74.769 37.0552 74.8266 37.0168C74.894 36.9784 74.9613 36.9592 75.0286 36.9112C75.0574 36.892 75.0286 36.8248 74.9997 36.8248Z" fill="#FDF498"/>
<path d="M75.1829 36.7865C75.1829 36.7865 75.1636 36.7865 75.1539 36.7865C75.1346 36.7865 75.1152 36.8058 75.1152 36.8154C75.1152 36.8347 75.1346 36.8444 75.1442 36.854C75.1732 36.854 75.1926 36.854 75.2022 36.8251C75.2216 36.8058 75.2022 36.7768 75.1732 36.7865H75.1829Z" fill="#FDF498"/>
<path d="M71.0578 35.2316C70.9809 35.3084 70.9136 35.4043 70.8655 35.5099C70.8655 35.5099 70.8463 35.5099 70.8366 35.5195C70.8655 35.1356 70.7213 34.8189 70.6347 34.6749C70.6443 34.5694 70.6539 34.4734 70.6636 34.3678C70.6636 34.3486 70.6347 34.339 70.6251 34.3678C70.5963 34.435 70.577 34.5118 70.5674 34.5886C70.5674 34.5886 70.5578 34.5886 70.5482 34.5886C70.5482 34.5886 70.5482 34.5886 70.5386 34.5886C70.5386 34.2047 70.3366 33.8496 70.2693 33.7344C70.279 33.6288 70.2982 33.5137 70.3078 33.4081C70.3078 33.3697 70.2597 33.3697 70.2597 33.4081C70.2405 33.5041 70.2309 33.6 70.2116 33.696C70.1059 33.4177 69.9136 33.1586 69.8174 33.0338C69.8174 32.9186 69.8174 32.7939 69.8174 32.6787C69.8174 32.6499 69.7789 32.6499 69.7693 32.6787C69.7501 32.7747 69.7501 32.861 69.7501 32.957C69.7501 32.957 69.7405 32.957 69.7309 32.957C69.5289 32.5443 69.0193 32.17 68.9905 32.1508C68.952 32.0549 68.9232 31.9589 68.8847 31.8629C68.8847 31.8437 68.8463 31.8629 68.8559 31.8821C68.8943 31.9877 68.9232 32.0933 68.9616 32.1988C68.8751 32.4484 68.8655 32.7555 68.9232 33.0722C68.9136 33.0722 68.904 33.0722 68.904 33.0722C68.8943 33.0722 68.8847 33.0722 68.8847 33.0818C68.827 33.0146 68.7597 32.957 68.6924 32.8994C68.6732 32.8802 68.6443 32.9186 68.6636 32.9378C68.7309 33.005 68.7982 33.0722 68.8655 33.1394C68.827 33.3505 68.8847 33.6192 68.9328 33.792C68.8751 33.7248 68.8174 33.6576 68.7597 33.6C68.7501 33.5904 68.7213 33.6 68.7405 33.6192C68.8078 33.6864 68.8655 33.7536 68.9136 33.8304C68.8174 34.0895 68.9136 34.3678 68.9905 34.5502C68.9809 34.5502 68.9713 34.5502 68.9713 34.5694C68.904 34.5214 68.8366 34.4734 68.7693 34.4254C68.7501 34.4158 68.7309 34.4446 68.7501 34.4542C68.827 34.5022 68.8943 34.5598 68.9616 34.6174C68.9136 34.8669 68.9809 35.0684 69.0386 35.1932H69.029C69.029 35.1932 69.0193 35.1932 69.0097 35.1932C69.0097 35.1932 69.0097 35.1932 69.0097 35.2124C69.0097 35.2124 69.0097 35.2124 69.0097 35.222C68.9424 35.1644 68.8751 35.1164 68.8078 35.0684C68.7886 35.0588 68.7693 35.0876 68.7886 35.0972C68.8655 35.1548 68.9424 35.2124 69.0097 35.27C69.0097 35.6155 69.2213 36.0473 69.3366 36.2681C69.3366 36.2681 69.3174 36.2681 69.3078 36.2681C69.2405 36.2105 69.1636 36.1433 69.1059 36.0761C69.0866 36.0569 69.0578 36.0761 69.077 36.1049C69.1443 36.1721 69.2213 36.2393 69.2886 36.3065C69.2886 36.4025 69.3174 36.7767 69.5097 37.1126C69.4424 37.0647 69.3751 37.0167 69.2982 36.9687C69.2789 36.9591 69.2501 36.9879 69.279 37.0071C69.3655 37.0647 69.452 37.1222 69.5289 37.1894C69.4809 37.3718 69.5386 37.5541 69.5963 37.6789C69.5963 37.6789 69.5963 37.6885 69.5963 37.6981C69.5963 38.0724 69.8366 38.3987 70.0482 38.581C70.2213 38.725 70.404 38.8018 70.5386 38.7826C70.5674 38.7826 70.5963 38.773 70.6251 38.7634C71.202 38.5714 71.2309 37.4965 71.2309 37.4486C71.2309 37.4486 71.2309 37.439 71.2309 37.4294C71.2309 37.4294 71.2213 37.4294 71.2116 37.4294H71.202C71.202 37.4294 71.1732 37.4486 71.1636 37.4486C71.2405 37.0935 71.1636 36.7192 71.1347 36.5464C71.1347 36.5464 71.1347 36.5464 71.1347 36.5368C71.1636 36.4504 71.2213 36.3833 71.2597 36.3065C71.2597 36.2873 71.2405 36.2777 71.2309 36.2873C71.1828 36.3353 71.1443 36.3929 71.1059 36.46C71.1059 36.1241 71.0193 35.6731 71.0001 35.5483C71.0386 35.4427 71.0963 35.3467 71.1732 35.2604C71.1924 35.2412 71.1732 35.2028 71.1443 35.222L71.0578 35.2316ZM70.9809 36.4792C70.702 36.6232 70.5097 36.8631 70.3751 37.0935C70.327 36.9591 70.2501 36.7959 70.1155 36.652C70.1539 36.412 70.3078 35.7786 70.8751 35.5483C70.8943 35.6635 70.9905 36.1433 70.9809 36.4792ZM71.0097 36.5176C71.0386 36.6232 71.154 37.0743 71.0578 37.4965C70.7405 37.6309 70.5674 37.89 70.4809 38.0724C70.452 37.842 70.3559 37.6693 70.2405 37.5445C70.3078 37.3334 70.5193 36.7671 71.0193 36.5176H71.0097ZM70.5578 38.7538C70.5578 38.7538 70.5001 38.773 70.4713 38.773C70.3463 38.7922 70.1732 38.7154 70.0097 38.581C69.8078 38.4083 69.5866 38.1108 69.577 37.7557C69.6828 37.7845 70.1155 37.8996 70.404 38.2643C70.404 38.2643 70.4136 38.2643 70.4232 38.2643C70.4232 38.2643 70.4328 38.2643 70.4424 38.2451C70.4424 38.2451 70.5963 37.6693 71.1347 37.4869C71.1347 37.6597 71.0578 38.5714 70.5578 38.7346V38.7538ZM69.5289 37.2086C69.6539 37.2278 70.404 37.4102 70.4424 38.1396C70.4328 38.1684 70.4232 38.1971 70.4136 38.2163C70.1251 37.8804 69.7213 37.7557 69.5963 37.7173C69.5289 37.5925 69.4713 37.391 69.5193 37.2086H69.5289ZM69.2886 36.3353C70.0097 36.3929 70.2693 36.8439 70.3559 37.1414C70.2789 37.2854 70.2309 37.4198 70.202 37.5061C69.9424 37.2566 69.6059 37.1798 69.5289 37.1702C69.3174 36.8343 69.2886 36.4312 69.2886 36.3353ZM68.9809 34.6078C69.0963 34.627 69.7693 34.7517 69.9809 35.3659C69.9328 35.4811 69.904 35.5963 69.8847 35.6731C69.5963 35.4139 69.2213 35.2796 69.077 35.2316C69.0097 35.1068 68.9232 34.8957 68.9905 34.6078H68.9809ZM68.9424 33.8496C69.0482 33.8784 69.5963 34.0223 69.8078 34.4542C69.7501 34.6174 69.7213 34.7709 69.6924 34.8861C69.4424 34.6749 69.1443 34.5982 69.0193 34.579C68.9328 34.4062 68.8366 34.1087 68.9424 33.8496ZM69.7116 32.9954C69.6347 33.0818 69.577 33.2066 69.5386 33.3313C69.3463 33.1874 69.0866 33.1106 68.9713 33.0818C68.904 32.7651 68.9232 32.458 69.0001 32.2084C69.1059 32.2852 69.5386 32.6211 69.7116 32.9954ZM70.1924 33.744C70.0289 33.9263 69.9136 34.1663 69.827 34.4062C69.7405 34.2431 69.6059 34.1279 69.4713 34.0319C69.4713 33.792 69.5193 33.2545 69.7501 33.0146C69.8174 33.0914 70.077 33.4177 70.1924 33.744ZM70.2213 36.1721C70.1636 35.9898 70.0482 35.8362 69.9136 35.7018C69.9809 35.4235 70.1732 34.8765 70.5674 34.627C70.6251 34.7037 70.8559 35.0684 70.8078 35.5387C70.5097 35.6827 70.327 35.9322 70.2213 36.1721ZM70.0001 35.3084C69.9328 35.1452 69.8366 35.0204 69.7309 34.9149C69.7789 34.6557 69.9232 34.0799 70.2309 33.7536C70.2886 33.8496 70.5001 34.2143 70.5001 34.6174C70.2597 34.7805 70.0963 35.0588 70.0001 35.3084ZM69.5193 33.3793C69.452 33.6096 69.4328 33.8592 69.4328 34.0127C69.2405 33.8976 69.0578 33.84 68.9713 33.8208C68.9232 33.648 68.8463 33.3409 68.904 33.1298C68.9809 33.149 69.2982 33.2257 69.5097 33.3889L69.5193 33.3793ZM70.1924 36.2297C70.1347 36.3833 70.0963 36.5176 70.0866 36.6136C69.9232 36.46 69.6924 36.3353 69.3559 36.2969C69.2405 36.0761 69.0097 35.6059 69.0193 35.2508C69.1732 35.2988 70.0386 35.5771 70.202 36.2297H70.1924Z" fill="#924B07"/>
<path d="M68.9617 33.0818C69.077 33.1106 69.3463 33.1874 69.529 33.3314C69.5674 33.2066 69.6251 33.0818 69.702 32.9955C69.529 32.6308 69.0963 32.2853 68.9905 32.2085C68.904 32.458 68.8943 32.7651 68.9617 33.0818Z" fill="#F9C842"/>
<path d="M68.9132 33.1202C68.8555 33.3313 68.9228 33.6384 68.9805 33.8112C69.0574 33.8304 69.2497 33.888 69.442 34.0031C69.442 33.8496 69.4612 33.6001 69.5285 33.3697C69.317 33.197 68.9997 33.1298 68.9228 33.1106L68.9132 33.1202Z" fill="#F9C842"/>
<path d="M69.4712 34.032C69.6058 34.1183 69.7404 34.2431 69.827 34.4063C69.9039 34.1759 70.0289 33.9264 70.1923 33.744C70.077 33.4081 69.8173 33.0914 69.75 33.0146C69.5193 33.2546 69.4808 33.792 69.4712 34.032Z" fill="#F9C842"/>
<path d="M69.7019 34.8861C69.7212 34.7805 69.7596 34.627 69.8173 34.4542C69.6058 34.0224 69.0577 33.8688 68.9519 33.8496C68.8558 34.1087 68.9519 34.3967 69.0289 34.579C69.1539 34.5982 69.4519 34.675 69.7019 34.8861Z" fill="#F9C842"/>
<path d="M70.2402 33.7537C69.9325 34.08 69.7883 34.6462 69.7402 34.9149C69.846 35.0109 69.9422 35.1453 70.0095 35.3084C70.1152 35.0589 70.2691 34.7902 70.5095 34.6174C70.5095 34.2143 70.2979 33.84 70.2402 33.7537Z" fill="#F9C842"/>
<path d="M69.8847 35.6731C69.904 35.5867 69.9424 35.4811 69.9809 35.366C69.7694 34.7517 69.0963 34.627 68.9809 34.6078C68.9136 34.8861 69.0001 35.1068 69.0674 35.2316C69.2213 35.2796 69.5867 35.4236 69.8751 35.6731H69.8847Z" fill="#F9C842"/>
<path d="M70.5674 34.627C70.1732 34.8765 69.9905 35.4331 69.9136 35.7018C70.0482 35.8266 70.1636 35.9802 70.2213 36.1721C70.327 35.9322 70.5097 35.6827 70.8078 35.5387C70.8559 35.0684 70.6251 34.7037 70.5674 34.627Z" fill="#F9C842"/>
<path d="M69.0189 35.2604C69.0189 35.6155 69.24 36.0857 69.3554 36.3065C69.692 36.3449 69.9324 36.4696 70.0862 36.6232C70.1054 36.5272 70.1343 36.3929 70.192 36.2393C70.0285 35.5963 69.1727 35.3084 69.0093 35.2604H69.0189Z" fill="#F9C842"/>
<path d="M70.1152 36.652C70.2498 36.796 70.3268 36.9495 70.3749 37.0935C70.4999 36.8728 70.6922 36.6328 70.9806 36.4793C70.9806 36.1434 70.8941 35.6635 70.8749 35.5483C70.3172 35.7787 70.1633 36.4025 70.1152 36.652Z" fill="#F9C842"/>
<path d="M69.529 37.1703C69.5963 37.1799 69.9424 37.2567 70.202 37.5062C70.2309 37.4198 70.279 37.2855 70.3559 37.1415C70.2693 36.844 70.0097 36.3929 69.2886 36.3353C69.2886 36.4313 69.3174 36.8248 69.529 37.1703Z" fill="#F9C842"/>
<path d="M70.2308 37.535C70.3558 37.6597 70.4423 37.8325 70.4712 38.0628C70.5577 37.8805 70.7308 37.6213 71.0481 37.487C71.1443 37.0647 71.0289 36.6136 71 36.5081C70.5 36.7576 70.2885 37.3238 70.2212 37.535H70.2308Z" fill="#F9C842"/>
<path d="M70.4133 38.2163C70.4133 38.2163 70.4325 38.1683 70.4422 38.1396C70.4037 37.4102 69.6537 37.2278 69.5287 37.2086C69.471 37.4006 69.5383 37.5925 69.6056 37.7173C69.7306 37.7461 70.1345 37.8708 70.4229 38.2163H70.4133Z" fill="#F9C842"/>
<path d="M70.442 38.2644C70.442 38.2644 70.442 38.274 70.4228 38.2836H70.4036C70.1055 37.9189 69.6824 37.7941 69.5767 37.7749C69.5959 38.1204 69.8074 38.4275 70.0093 38.6003C70.1728 38.7347 70.3459 38.8114 70.4709 38.7922C70.4997 38.7922 70.5286 38.7826 70.5574 38.773C71.0574 38.6099 71.1247 37.6981 71.1344 37.5254C70.5959 37.7077 70.442 38.2836 70.442 38.2836V38.2644Z" fill="#F9C842"/>
<path d="M69.7115 32.9954C69.6826 32.9282 69.6442 32.8611 69.5961 32.8035C69.5961 32.8706 69.5768 32.9282 69.5384 32.9762C69.4807 33.0434 69.3942 33.0722 69.3076 33.0626C69.2211 33.0626 69.1441 33.0242 69.0768 32.9762C69.0288 32.9474 68.9807 32.8994 68.9326 32.8611C68.9326 32.9378 68.9518 33.0146 68.9615 33.0914C69.0768 33.1202 69.3461 33.197 69.5288 33.3409C69.5672 33.2162 69.6249 33.0914 69.7018 33.005L69.7115 32.9954Z" fill="#FAA819"/>
<path d="M70.192 33.7441C70.1632 33.6673 70.1343 33.6001 70.0959 33.5233C70.0766 33.5905 70.0382 33.6481 70.0093 33.7057C69.942 33.8112 69.8362 33.8976 69.7209 33.9168C69.6343 33.9264 69.5382 33.888 69.4901 33.8208C69.4901 33.9072 69.4805 33.984 69.4805 34.0416C69.6151 34.1279 69.7497 34.2527 69.8362 34.4159C69.9132 34.1855 70.0382 33.936 70.2016 33.7536L70.192 33.7441Z" fill="#FAA819"/>
<path d="M69.4326 34.0031C69.4326 33.8496 69.4518 33.6 69.5191 33.3697C69.4807 33.3409 69.4326 33.3121 69.3941 33.2833C69.3941 33.3793 69.3941 33.4849 69.3364 33.5616C69.2787 33.648 69.173 33.7056 69.0768 33.7248C69.0383 33.7248 68.9999 33.7248 68.9614 33.7248C68.9614 33.7536 68.971 33.7728 68.9807 33.8016C69.0576 33.8208 69.2499 33.8784 69.4422 33.9935L69.4326 34.0031Z" fill="#FAA819"/>
<path d="M70.4997 34.4926C70.3555 34.627 70.1728 34.723 69.9805 34.7518C69.942 34.7518 69.9035 34.7614 69.8747 34.7518C69.8362 34.7326 69.8074 34.7038 69.7882 34.6558C69.7593 34.7518 69.7401 34.8477 69.7305 34.9149C69.8362 35.0109 69.9324 35.1452 69.9997 35.3084C70.1055 35.0589 70.2593 34.7901 70.4997 34.6174C70.4997 34.5694 70.4997 34.531 70.4997 34.483V34.4926Z" fill="#FAA819"/>
<path d="M69.6728 34.2528C69.6728 34.3103 69.6728 34.3775 69.6439 34.4255C69.5574 34.5599 69.3651 34.5887 69.2112 34.5503C69.1343 34.5311 69.0574 34.5023 68.9805 34.4735C68.9901 34.5119 69.0093 34.5407 69.0189 34.5695C69.1439 34.5887 69.442 34.6654 69.692 34.8766C69.7112 34.771 69.7497 34.6175 69.8074 34.4447C69.7689 34.3679 69.7209 34.3007 69.6728 34.2432V34.2528Z" fill="#FAA819"/>
<path d="M70.8075 35.3947C70.7113 35.5003 70.5863 35.5867 70.4517 35.6251C70.3555 35.6539 70.2498 35.6731 70.1632 35.6251C70.0863 35.5963 70.019 35.5195 69.9998 35.4427C69.9613 35.5387 69.9421 35.6251 69.9229 35.6922C70.0575 35.817 70.1729 35.9706 70.2305 36.1625C70.3363 35.9226 70.519 35.6731 70.8171 35.5291C70.8171 35.4811 70.8171 35.4331 70.8171 35.3851L70.8075 35.3947Z" fill="#FAA819"/>
<path d="M69.9806 35.366C69.9421 35.2508 69.8844 35.1549 69.8171 35.0685C69.8075 35.0973 69.7979 35.1357 69.7787 35.1645C69.7402 35.2124 69.6921 35.2412 69.6344 35.2508C69.519 35.2892 69.3844 35.2796 69.269 35.2412C69.1825 35.2124 69.1056 35.1741 69.019 35.1357C69.0383 35.1741 69.0479 35.2028 69.0671 35.2316C69.221 35.2796 69.5864 35.4236 69.8748 35.6731C69.894 35.5867 69.9325 35.4812 69.971 35.366H69.9806Z" fill="#FAA819"/>
<path d="M70.9808 36.3257C70.8365 36.4409 70.6827 36.5272 70.5 36.5464C70.4423 36.5464 70.3846 36.5464 70.3365 36.5368C70.2596 36.508 70.2115 36.4409 70.1923 36.3737C70.1538 36.4888 70.1346 36.5944 70.125 36.6616C70.2596 36.8056 70.3365 36.9591 70.3846 37.1031C70.5096 36.8823 70.7019 36.6424 70.9904 36.4888C70.9904 36.4409 70.9904 36.3833 70.9904 36.3353L70.9808 36.3257Z" fill="#FAA819"/>
<path d="M70.019 35.8843C70.019 35.8843 69.9902 35.9611 69.971 35.9994C69.9229 36.0858 69.8748 36.1818 69.7787 36.2202C69.7017 36.2586 69.6152 36.249 69.5287 36.2298C69.4421 36.2106 69.346 36.1818 69.269 36.153C69.2979 36.2106 69.3171 36.2586 69.346 36.297C69.6825 36.3354 69.9229 36.4601 70.0767 36.6137C70.096 36.5177 70.1248 36.3833 70.1825 36.2298C70.1537 36.0954 70.0863 35.9803 70.0094 35.8843H70.019Z" fill="#FAA819"/>
<path d="M71.0862 37.2567C70.9805 37.3719 70.8555 37.4582 70.7016 37.4966C70.6343 37.5062 70.567 37.5062 70.5093 37.4774C70.4324 37.439 70.3843 37.3719 70.3651 37.2951C70.3651 37.2759 70.3651 37.2471 70.3555 37.2279C70.2978 37.3527 70.2593 37.4582 70.2305 37.535C70.3555 37.6598 70.442 37.8325 70.4709 38.0629C70.5574 37.8805 70.7305 37.6214 71.0478 37.487C71.067 37.4103 71.0766 37.3335 71.0766 37.2567H71.0862Z" fill="#FAA819"/>
<path d="M69.5287 37.1703C69.596 37.1799 69.9422 37.2567 70.2018 37.5062C70.2307 37.4198 70.2787 37.2855 70.3557 37.1415C70.3364 37.0647 70.298 36.9783 70.2499 36.892C70.2307 36.9591 70.2018 37.0167 70.1441 37.0551C70.0383 37.1511 69.8845 37.1607 69.7499 37.1319C69.6537 37.1127 69.5576 37.0743 69.4614 37.0359C69.4807 37.0839 69.5095 37.1319 69.5384 37.1703H69.5287Z" fill="#FAA819"/>
<path d="M70.3363 37.7462C70.3363 37.7462 70.269 37.775 70.2402 37.7846C70.1152 37.8229 69.9709 37.7942 69.8459 37.7462C69.7402 37.7078 69.644 37.6406 69.5479 37.583C69.5671 37.631 69.5863 37.679 69.6055 37.7174C69.7305 37.7462 70.1344 37.8709 70.4228 38.2164C70.4228 38.1972 70.4421 38.1684 70.4517 38.1397C70.4517 37.9861 70.4036 37.8517 70.3459 37.7462H70.3363Z" fill="#FAA819"/>
<path d="M71.0382 38.1012C71.0382 38.1012 71.0285 38.1204 71.0189 38.13C70.942 38.2739 70.8459 38.4179 70.7016 38.5043C70.5478 38.6003 70.3362 38.6194 70.1632 38.5523C70.0862 38.5235 70.0286 38.4755 69.9612 38.4371C69.8843 38.3795 69.8074 38.3123 69.7305 38.2452C69.8074 38.3795 69.9132 38.4947 70.0093 38.5811C70.1728 38.7154 70.3459 38.7922 70.4709 38.773C70.4997 38.773 70.5285 38.7634 70.5574 38.7538C70.817 38.6674 70.9612 38.3795 71.0382 38.1012Z" fill="#FAA819"/>
<path d="M69.2691 32.5156C69.2691 32.5156 69.2114 32.4484 69.173 32.4101C69.1345 32.3717 69.1057 32.3333 69.0576 32.3045C69.0287 32.2853 69.0095 32.3237 69.0287 32.3525C69.0672 32.3909 69.096 32.4292 69.1345 32.4676C69.1634 32.506 69.1922 32.5348 69.2307 32.554C69.2595 32.5636 69.2884 32.5348 69.2691 32.5156Z" fill="#FDF498"/>
<path d="M69.3753 32.6887C69.3753 32.6887 69.3656 32.6694 69.356 32.6597C69.3463 32.6211 69.2883 32.6597 69.3076 32.679C69.3173 32.6887 69.327 32.708 69.3463 32.7176C69.3656 32.7273 69.385 32.7176 69.3753 32.6983V32.6887Z" fill="#FDF498"/>
<path d="M69.7689 33.1586C69.7689 33.1586 69.7112 33.1586 69.7208 33.1874C69.74 33.2258 69.7785 33.2545 69.8073 33.2929C69.8266 33.3121 69.8554 33.2929 69.8554 33.2641C69.8362 33.2162 69.7977 33.197 69.7689 33.1586Z" fill="#FDF498"/>
<path d="M69.0095 33.2257C69.0095 33.2257 68.9999 33.2161 68.9903 33.2065C68.9807 33.2065 68.9614 33.2065 68.9614 33.2257C68.9614 33.2257 68.9614 33.2353 68.9614 33.2449C68.9614 33.2641 68.9614 33.2737 68.9614 33.2929C68.9614 33.3217 68.9614 33.3601 68.9807 33.3889C68.9999 33.4177 69.0287 33.3889 69.0384 33.3697C69.0384 33.3313 69.0384 33.3025 69.0384 33.2737C69.0384 33.2545 69.0383 33.2353 69.0287 33.2257H69.0095Z" fill="#FDF498"/>
<path d="M69.0189 33.9648C69.0189 33.9648 68.9901 34.032 68.9805 34.0704C68.9805 34.1088 68.9805 34.1568 69.0093 34.1952C69.0285 34.2144 69.067 34.2048 69.067 34.176C69.067 34.1472 69.067 34.1088 69.067 34.08C69.067 34.0512 69.067 34.0224 69.067 33.984C69.067 33.9552 69.0382 33.9552 69.0189 33.9648Z" fill="#FDF498"/>
<path d="M70.2789 33.936C70.2789 33.936 70.2212 33.9168 70.2212 33.9551C70.2404 34.0415 70.2693 34.1375 70.3173 34.2143C70.327 34.2431 70.375 34.2239 70.375 34.1951C70.3558 34.1087 70.3173 34.0223 70.2885 33.936H70.2789Z" fill="#FDF498"/>
<path d="M69.0094 34.7134C68.9902 34.7805 69.0094 34.8573 69.0287 34.9245C69.0287 34.9533 69.0767 34.9533 69.0767 34.9245C69.0767 34.8573 69.0767 34.7901 69.0671 34.723C69.0671 34.6942 69.019 34.6846 69.0094 34.723V34.7134Z" fill="#FDF498"/>
<path d="M69.1152 35.4235C69.0768 35.5003 69.1345 35.6443 69.1729 35.7115C69.1922 35.7403 69.2306 35.7211 69.2306 35.6923C69.2306 35.6443 69.2114 35.6059 69.1921 35.5675C69.1729 35.5195 69.1633 35.4811 69.1633 35.4331C69.1633 35.414 69.1248 35.4044 69.1152 35.4235Z" fill="#FDF498"/>
<path d="M69.2787 35.7978C69.2787 35.7978 69.2304 35.7882 69.24 35.8075C69.24 35.8268 69.2497 35.8557 69.269 35.875C69.2787 35.8943 69.3077 35.875 69.3077 35.8654C69.3077 35.8461 69.298 35.8171 69.2884 35.7978H69.2787Z" fill="#FDF498"/>
<path d="M70.596 34.8094C70.596 34.8094 70.519 34.7902 70.5287 34.8286C70.5479 34.8958 70.5671 34.963 70.596 35.0109C70.6152 35.0397 70.6633 35.0205 70.6537 34.9918C70.6537 34.9246 70.6152 34.867 70.5864 34.7998L70.596 34.8094Z" fill="#FDF498"/>
<path d="M70.6538 35.1453C70.6538 35.1453 70.6538 35.1933 70.6634 35.2124C70.6634 35.2316 70.7019 35.2316 70.7115 35.2124C70.7115 35.1837 70.7115 35.1645 70.7115 35.1357C70.7115 35.1069 70.6538 35.1165 70.6538 35.1453Z" fill="#FDF498"/>
<path d="M69.4421 36.5177H69.4037C69.3845 36.5849 69.4133 36.6713 69.4421 36.7288C69.4518 36.7576 69.4998 36.748 69.4902 36.7288C69.4902 36.6905 69.4806 36.6617 69.471 36.6233C69.471 36.5945 69.4614 36.5561 69.4421 36.5273V36.5177Z" fill="#FDF498"/>
<path d="M69.4615 36.8826C69.4615 36.8826 69.4615 36.9019 69.4711 36.9019C69.4808 36.9212 69.5195 36.9019 69.5098 36.8922C69.5098 36.8922 69.5098 36.8729 69.5098 36.8633C69.5098 36.815 69.4421 36.844 69.4615 36.8826Z" fill="#FDF498"/>
<path d="M70.7788 35.7403C70.7981 35.8075 70.7981 35.8843 70.8077 35.9611C70.8077 35.9898 70.8557 35.9994 70.8654 35.9611C70.8654 35.8747 70.8654 35.7979 70.8365 35.7211C70.8269 35.6827 70.7596 35.7019 70.7788 35.7403Z" fill="#FDF498"/>
<path d="M69.8748 37.487C69.8171 37.4198 69.7402 37.343 69.6536 37.3046C69.6248 37.295 69.6055 37.3334 69.6344 37.3526C69.7113 37.4006 69.769 37.4678 69.8459 37.5254C69.8652 37.5445 69.9036 37.5158 69.8844 37.487H69.8748Z" fill="#FDF498"/>
<path d="M70.7308 36.8535C70.6347 36.8919 70.6154 37.0359 70.5962 37.1222C70.5962 37.1606 70.6443 37.1702 70.6539 37.1318C70.6635 37.0935 70.6827 37.0455 70.702 37.0071C70.7212 36.9687 70.75 36.9399 70.7693 36.8919C70.7789 36.8727 70.7597 36.8343 70.7308 36.8439V36.8535Z" fill="#FDF498"/>
<path d="M70.8461 36.7192C70.8461 36.7192 70.7978 36.7289 70.7881 36.7578C70.7688 36.7964 70.8364 36.835 70.8461 36.7868C70.8461 36.7675 70.8654 36.7578 70.8558 36.7385C70.8558 36.7385 70.8461 36.7192 70.8364 36.7192H70.8461Z" fill="#FDF498"/>
<path d="M70.0575 38.1204C70.0575 38.1204 69.9806 38.0532 69.9421 38.034C69.894 38.0052 69.846 37.9572 69.7979 37.9189C69.7787 37.8997 69.7498 37.9189 69.769 37.9477C69.7979 37.9956 69.8363 38.0244 69.8844 38.0628C69.9325 38.1012 69.9806 38.13 70.0287 38.1684C70.0575 38.1876 70.0767 38.1492 70.0575 38.13V38.1204Z" fill="#FDF498"/>
<path d="M70.8942 37.6981C70.7692 37.7461 70.7115 37.8901 70.6826 38.0148C70.6826 38.0436 70.7211 38.0628 70.7307 38.034C70.7499 37.9764 70.7788 37.9285 70.8172 37.8901C70.8557 37.8421 70.9038 37.8037 70.9326 37.7557C70.9518 37.7269 70.9134 37.6885 70.8845 37.7077L70.8942 37.6981Z" fill="#FDF498"/>
<path d="M71.0191 37.6213C71.0191 37.6213 71.0095 37.6213 70.9998 37.6213C70.9805 37.6213 70.9805 37.6406 70.9805 37.6599C70.9805 37.6792 70.9998 37.6792 71.0191 37.6792C71.0385 37.6792 71.0481 37.6599 71.0578 37.6406C71.0578 37.6213 71.0385 37.6117 71.0288 37.6213H71.0191Z" fill="#FDF498"/>
<path d="M103.731 93.4775C100.211 94.8211 93.9036 93.4871 93.5094 89.0052C93.1825 85.3486 98.0575 84.5041 97.5575 87.2585C97.3459 88.4485 96.0671 88.2278 95.7786 88.6309C95.4133 89.1396 96.4517 90.5599 96.8652 90.9534C98.8748 92.8249 103.029 92.4506 104.807 90.3968C106.606 88.3238 106.057 84.053 102.981 83.6115C101.682 83.4292 100.048 83.9858 99.1729 83.8419C98.8075 83.7843 98.5575 83.6499 98.5575 83.2468C98.5575 82.3831 102.711 78.5921 103.49 77.5748C103.673 77.3349 103.961 77.2677 103.846 76.855H96.9998C95.6633 76.855 96.4902 79.8686 95.9325 80.6076C95.4229 81.289 94.4613 80.8379 94.4709 80.358V75.2907C94.4709 75.2907 94.4709 74.974 94.6152 74.83C94.7594 74.686 95.0575 74.686 95.0863 74.686H106.856C107.519 74.8108 107.894 75.6458 107.432 76.212L101.577 81.932L102.548 81.9032C109.557 81.788 109.654 91.2126 103.74 93.4775H103.731Z" fill="white"/>
<path d="M0 74.5133H6.86538L9.50962 86.1548L12.1442 74.5133H19.0096V93.6503H14.7308V79.0528L11.4327 93.6503H7.55769L4.26923 79.0528V93.6503H0V74.5133Z" fill="white"/>
<path d="M21.6826 84.0914C21.6826 80.9627 22.4518 78.5346 23.9903 76.7975C25.5288 75.0604 27.6634 74.187 30.4134 74.187C33.1634 74.187 35.3942 75.0412 36.9134 76.7495C38.4326 78.4578 39.1922 80.8571 39.1922 83.9379C39.1922 86.174 38.8557 88.0071 38.1922 89.4371C37.5288 90.8671 36.5672 91.9804 35.3076 92.777C34.048 93.5735 32.4807 93.967 30.6153 93.967C28.7499 93.967 27.1345 93.6215 25.8845 92.9401C24.6345 92.2491 23.6249 91.1646 22.8461 89.677C22.0672 88.1895 21.6826 86.3276 21.6826 84.0914ZM26.9038 84.1202C26.9038 86.0493 27.2211 87.4409 27.8557 88.2854C28.4903 89.13 29.3557 89.5523 30.4422 89.5523C31.5288 89.5523 32.4326 89.1396 33.048 88.3142C33.6634 87.4888 33.9711 86.0013 33.9711 83.8611C33.9711 82.0568 33.6538 80.742 33.0095 79.9166C32.3653 79.0912 31.4999 78.6689 30.3942 78.6689C29.2884 78.6689 28.4999 79.0912 27.8557 79.9358C27.2115 80.7803 26.8942 82.172 26.8942 84.1298L26.9038 84.1202Z" fill="white"/>
<path d="M41.096 87.3161L46.0672 86.961C46.173 87.8727 46.3941 88.5733 46.721 89.0532C47.2595 89.8306 48.0287 90.2145 49.0287 90.2145C49.7691 90.2145 50.346 90.0129 50.7499 89.6194C51.1537 89.226 51.3557 88.7653 51.3557 88.247C51.3557 87.7288 51.1634 87.3065 50.7787 86.913C50.3941 86.5195 49.4999 86.1548 48.1057 85.7997C45.8172 85.2143 44.1826 84.4465 43.2018 83.4772C42.221 82.5079 41.7307 81.2794 41.7307 79.7822C41.7307 78.8033 41.9807 77.8724 42.4807 76.999C42.9807 76.1257 43.7403 75.4347 44.7499 74.9356C45.7595 74.4365 47.1441 74.187 48.9037 74.187C51.0672 74.187 52.7114 74.6381 53.846 75.5498C54.9807 76.4616 55.6537 77.9108 55.8653 79.8878L50.9422 80.2141C50.8076 79.3504 50.5383 78.7265 50.1153 78.333C49.6922 77.9396 49.1153 77.7476 48.3845 77.7476C47.7787 77.7476 47.3172 77.8916 47.0095 78.1891C46.7018 78.4866 46.548 78.8321 46.548 79.2544C46.548 79.5615 46.673 79.8302 46.9326 80.0797C47.1826 80.3293 47.7595 80.5692 48.6826 80.7803C50.9614 81.337 52.596 81.9032 53.5864 82.4695C54.5768 83.0357 55.2884 83.7459 55.7403 84.5905C56.1922 85.435 56.4133 86.3756 56.4133 87.4217C56.4133 88.6501 56.1153 89.7826 55.5095 90.8191C54.9037 91.8556 54.0672 92.6426 52.9999 93.18C51.923 93.7175 50.5672 93.9862 48.9326 93.9862C46.0576 93.9862 44.0672 93.3624 42.9614 92.1052C41.8557 90.8479 41.2307 89.2548 41.0864 87.3257L41.096 87.3161Z" fill="white"/>
<path d="M69.4521 90.4928H63.5194L62.6925 93.6503H57.356L63.7117 74.5133H69.404L75.7502 93.6503H70.279L69.4329 90.4928H69.4521ZM68.3656 86.3564L66.5002 79.4751L64.654 86.3564H68.3656Z" fill="white"/>
<path d="M77.4038 74.5133H86.0865C87.9807 74.5133 89.3942 75.022 90.3365 76.0393C91.2788 77.0566 91.75 78.5058 91.75 80.3868C91.75 82.2679 91.2403 83.8323 90.2115 84.9168C89.1827 86.0013 87.6153 86.5483 85.5096 86.5483H82.6538V93.6503H77.4038V74.5133ZM82.6442 82.671H83.923C84.9327 82.671 85.6346 82.4695 86.048 82.076C86.4519 81.6825 86.6634 81.1738 86.6634 80.5596C86.6634 79.9454 86.4903 79.4463 86.1346 79.0336C85.7788 78.6209 85.1153 78.4098 84.1442 78.4098H82.6538V82.6806L82.6442 82.671Z" fill="white"/>
<path d="M9.5 101.923L11.3558 97.0957H12.0481L14.0288 101.923H13.2981L12.7308 100.464H10.7115L10.1827 101.923H9.5ZM10.9038 99.9365H12.5481L12.0385 98.6025C11.8846 98.1994 11.7692 97.8635 11.6923 97.6044C11.6346 97.9115 11.5481 98.2186 11.4327 98.5257L10.9038 99.9461V99.9365Z" fill="white"/>
<path d="M16.8078 100.023V99.4567H18.8559V101.242C18.5386 101.491 18.2213 101.683 17.8848 101.808C17.5482 101.933 17.2021 102 16.8559 102C16.3848 102 15.9521 101.894 15.5578 101.693C15.1732 101.491 14.8752 101.194 14.6828 100.81C14.4905 100.426 14.3848 99.9941 14.3848 99.5238C14.3848 99.0536 14.4809 98.6121 14.6828 98.209C14.8848 97.8059 15.1636 97.4988 15.529 97.2973C15.8944 97.0957 16.3271 96.9998 16.8078 96.9998C17.154 96.9998 17.4713 97.0573 17.7598 97.1725C18.0386 97.2877 18.2598 97.4412 18.4232 97.6428C18.5867 97.8443 18.7021 98.1034 18.7886 98.4298L18.2117 98.5929C18.1348 98.3434 18.0482 98.1514 17.9425 98.0171C17.8367 97.8827 17.6828 97.7675 17.4809 97.6812C17.279 97.5948 17.0578 97.5564 16.8175 97.5564C16.529 97.5564 16.2694 97.6044 16.0578 97.6908C15.8463 97.7771 15.6732 97.8923 15.5386 98.0459C15.404 98.1898 15.3078 98.353 15.2309 98.5257C15.1059 98.8232 15.0482 99.1495 15.0482 99.495C15.0482 99.9269 15.1252 100.282 15.2694 100.58C15.4136 100.867 15.6348 101.088 15.9136 101.223C16.1925 101.357 16.5001 101.434 16.8175 101.434C17.0963 101.434 17.3655 101.376 17.6251 101.271C17.8848 101.165 18.0867 101.05 18.2213 100.925V100.023H16.7982H16.8078Z" fill="white"/>
<path d="M19.8075 101.923V97.0957H21.9517C22.3844 97.0957 22.7113 97.1437 22.9325 97.2301C23.1536 97.3164 23.3363 97.47 23.4709 97.6907C23.6055 97.9115 23.6729 98.1514 23.6729 98.4201C23.6729 98.7656 23.5575 99.0535 23.3363 99.2839C23.1152 99.5142 22.769 99.6678 22.3075 99.735C22.4805 99.8117 22.6055 99.8981 22.6921 99.9749C22.8748 100.148 23.0575 100.359 23.2209 100.618L24.0671 101.933H23.2594L22.6152 100.925C22.4325 100.637 22.2786 100.416 22.1536 100.263C22.0286 100.109 21.9229 100.004 21.8267 99.9365C21.7305 99.8789 21.6344 99.8309 21.5382 99.8117C21.4613 99.7925 21.3459 99.7925 21.1825 99.7925H20.4421V101.933H19.7979L19.8075 101.923ZM20.4517 99.2263H21.8267C22.1152 99.2263 22.3459 99.1975 22.5094 99.1399C22.6729 99.0823 22.7979 98.9864 22.8844 98.852C22.9709 98.7176 23.0094 98.5737 23.0094 98.4201C23.0094 98.1898 22.9229 98.0074 22.7594 97.8539C22.5959 97.7099 22.3267 97.6332 21.9709 97.6332H20.4421V99.2263H20.4517Z" fill="white"/>
<path d="M24.4808 99.5718C24.4808 98.7752 24.6923 98.1418 25.125 97.6907C25.5577 97.2396 26.1154 97.0093 26.7981 97.0093C27.2404 97.0093 27.6443 97.1148 28.0097 97.326C28.375 97.5371 28.6443 97.8346 28.827 98.2185C29.0193 98.6024 29.1058 99.0343 29.1058 99.5142C29.1058 99.994 29.0097 100.445 28.8077 100.829C28.6058 101.213 28.327 101.51 27.9616 101.702C27.5962 101.904 27.2116 102 26.7885 102C26.3366 102 25.9231 101.894 25.5673 101.674C25.2116 101.453 24.9327 101.155 24.75 100.771C24.5673 100.388 24.4712 99.994 24.4712 99.5622L24.4808 99.5718ZM25.1443 99.5814C25.1443 100.167 25.2981 100.618 25.6154 100.954C25.9327 101.29 26.327 101.453 26.7981 101.453C27.2693 101.453 27.6731 101.28 27.9904 100.944C28.2981 100.608 28.4616 100.128 28.4616 99.5046C28.4616 99.1111 28.3943 98.7656 28.2597 98.4777C28.125 98.1897 27.9327 97.9594 27.6731 97.7963C27.4135 97.6331 27.125 97.5563 26.8077 97.5563C26.3558 97.5563 25.9616 97.7099 25.6347 98.0266C25.3077 98.3433 25.1443 98.852 25.1443 99.5814Z" fill="white"/>
<path d="M29.625 100.474V99.8789H31.4519V100.474H29.625Z" fill="white"/>
<path d="M32.1825 101.923V97.0957H34.0094C34.3267 97.0957 34.5767 97.1149 34.7402 97.1437C34.9805 97.1821 35.1729 97.2589 35.3363 97.3644C35.4998 97.4796 35.6248 97.6332 35.7209 97.8347C35.8171 98.0362 35.8652 98.257 35.8652 98.4969C35.8652 98.9096 35.7305 99.2551 35.4709 99.543C35.2113 99.8309 34.7402 99.9653 34.0575 99.9653H32.8171V101.923H32.1729H32.1825ZM32.8267 99.3895H34.0767C34.4902 99.3895 34.7882 99.3127 34.9613 99.1591C35.1344 99.0056 35.2209 98.7944 35.2209 98.5065C35.2209 98.305 35.1729 98.1322 35.0671 97.9883C34.9613 97.8443 34.8267 97.7483 34.6632 97.7003C34.5575 97.6715 34.3555 97.6619 34.0671 97.6619H32.8267V99.3895Z" fill="white"/>
<path d="M36.7021 101.923V97.0957H40.2022V97.6619H37.3464V99.1399H40.0195V99.7062H37.3464V101.347H40.3175V101.914H36.7118L36.7021 101.923Z" fill="white"/>
<path d="M44.6444 100.224L45.2886 100.388C45.154 100.915 44.9136 101.309 44.5675 101.587C44.2213 101.866 43.7886 102 43.2886 102C42.7886 102 42.3463 101.894 42.0194 101.683C41.6925 101.472 41.4425 101.165 41.2694 100.762C41.0963 100.359 41.0098 99.9269 41.0098 99.4662C41.0098 98.9671 41.1059 98.5256 41.2982 98.1514C41.4905 97.7771 41.7598 97.4891 42.1155 97.2972C42.4713 97.1052 42.8655 97.0093 43.2886 97.0093C43.7694 97.0093 44.1828 97.134 44.5098 97.374C44.8367 97.6235 45.0675 97.969 45.2021 98.4105L44.5675 98.5544C44.4521 98.1993 44.2886 97.9498 44.0771 97.7867C43.8655 97.6235 43.5963 97.5467 43.2694 97.5467C42.8944 97.5467 42.5867 97.6331 42.3367 97.8154C42.0867 97.9978 41.9136 98.2281 41.8078 98.5352C41.7021 98.8328 41.654 99.1399 41.654 99.4662C41.654 99.8789 41.7117 100.234 41.8367 100.541C41.9521 100.848 42.1444 101.079 42.3944 101.222C42.6444 101.376 42.9232 101.453 43.2117 101.453C43.5675 101.453 43.8751 101.347 44.1251 101.146C44.3751 100.944 44.5386 100.637 44.6251 100.224H44.6444Z" fill="white"/>
<path d="M49.2499 97.0957H49.8941V99.8885C49.8941 100.378 49.8364 100.762 49.7307 101.04C49.6249 101.328 49.423 101.558 49.1345 101.741C48.846 101.923 48.471 102.01 47.9999 102.01C47.5287 102.01 47.173 101.933 46.8845 101.779C46.596 101.626 46.3941 101.395 46.2691 101.098C46.1441 100.8 46.0864 100.397 46.0864 99.8885V97.0957H46.7307V99.8789C46.7307 100.301 46.7691 100.608 46.846 100.81C46.923 101.011 47.0576 101.165 47.2499 101.271C47.4422 101.376 47.673 101.434 47.9518 101.434C48.423 101.434 48.7595 101.328 48.9614 101.117C49.1633 100.906 49.2595 100.493 49.2595 99.8885V97.1053L49.2499 97.0957Z" fill="white"/>
<path d="M50.4229 101.923L52.2786 97.0957H52.9709L54.9517 101.923H54.2209L53.6536 100.464H51.6344L51.1055 101.923H50.4229ZM51.8171 99.9365H53.4613L52.9517 98.6025C52.7979 98.1994 52.6825 97.8635 52.6055 97.6043C52.5479 97.9115 52.4613 98.2186 52.3459 98.5257L51.8171 99.9461V99.9365ZM52.2209 96.7982L52.6632 95.8768H53.4421L52.7209 96.7982H52.2305H52.2209Z" fill="white"/>
<path d="M55.471 101.923V97.0957H57.6153C58.048 97.0957 58.3749 97.1437 58.596 97.2301C58.8172 97.3164 58.9999 97.47 59.1345 97.6907C59.2691 97.9115 59.3364 98.1514 59.3364 98.4201C59.3364 98.7656 59.221 99.0535 58.9999 99.2839C58.7787 99.5142 58.4326 99.6678 57.971 99.735C58.1441 99.8117 58.2691 99.8981 58.3557 99.9749C58.5383 100.148 58.721 100.359 58.8845 100.618L59.7307 101.933H58.923L58.2787 100.925C58.096 100.637 57.9422 100.416 57.8172 100.263C57.7018 100.109 57.5864 100.004 57.4903 99.9365C57.3941 99.8789 57.298 99.8309 57.2018 99.8117C57.1249 99.7925 57.0095 99.7925 56.846 99.7925H56.1057V101.933H55.4614L55.471 101.923ZM56.1153 99.2263H57.4903C57.7787 99.2263 58.0095 99.1975 58.173 99.1399C58.3364 99.0823 58.4614 98.9864 58.548 98.852C58.6345 98.7176 58.673 98.5737 58.673 98.4201C58.673 98.1898 58.5864 98.0074 58.423 97.8539C58.2595 97.7003 57.9903 97.6332 57.6345 97.6332H56.1057V99.2263H56.1153Z" fill="white"/>
<path d="M60.4521 101.923V97.0957H61.0964V101.923H60.4521Z" fill="white"/>
<path d="M61.6826 101.923L63.5384 97.0957H64.2307L66.2115 101.923H65.4807L64.9134 100.464H62.8942L62.3653 101.923H61.6826ZM63.0865 99.9365H64.7307L64.2211 98.6025C64.0672 98.1994 63.9518 97.8635 63.8749 97.6044C63.8172 97.9115 63.7307 98.2186 63.6153 98.5257L63.0865 99.9461V99.9365Z" fill="white"/>
<path d="M68.2596 101.923V97.0957H71.5192V97.6619H68.8942V99.1591H71.1635V99.7254H68.8942V101.923H68.25H68.2596Z" fill="white"/>
<path d="M71.4521 101.923L73.3079 97.0957H74.0002L75.981 101.923H75.2502L74.6829 100.464H72.6637L72.1348 101.923H71.4521ZM72.8464 99.9365H74.4906L73.981 98.6025C73.8272 98.1994 73.7118 97.8635 73.6348 97.6044C73.5772 97.9115 73.4906 98.2186 73.3752 98.5257L72.8464 99.9461V99.9365Z" fill="white"/>
<path d="M76.4712 101.923V97.0957H77.4327L78.577 100.512C78.6827 100.829 78.7597 101.069 78.8077 101.232C78.8654 101.059 78.952 100.8 79.0673 100.455L80.2308 97.0957H81.0866V101.923H80.4712V97.8827L79.0673 101.923H78.4904L77.0866 97.8155V101.923H76.4712Z" fill="white"/>
<path d="M82.231 101.923V97.0957H82.8752V101.923H82.231Z" fill="white"/>
<path d="M83.9712 101.923V97.0957H84.6154V101.357H87V101.923H83.9808H83.9712Z" fill="white"/>
<path d="M87.856 101.923V97.0957H88.5002V101.923H87.856Z" fill="white"/>
<path d="M89.0962 101.923L90.952 97.0957H91.6443L93.625 101.923H92.8943L92.327 100.464H90.3077L89.7789 101.923H89.0962ZM90.4904 99.9365H92.1346L91.625 98.6025C91.4712 98.1994 91.3558 97.8635 91.2789 97.6044C91.2212 97.9115 91.1347 98.2186 91.0193 98.5257L90.4904 99.9461V99.9365Z" fill="white"/>
<path d="M94.1444 101.923V97.0957H96.2886C96.7213 97.0957 97.0482 97.1437 97.2694 97.2301C97.4905 97.3164 97.6732 97.47 97.8078 97.6907C97.9425 97.9115 98.0098 98.1514 98.0098 98.4201C98.0098 98.7656 97.8944 99.0535 97.6732 99.2839C97.4521 99.5142 97.1059 99.6678 96.6444 99.735C96.8175 99.8117 96.9425 99.8981 97.029 99.9749C97.2117 100.148 97.3944 100.359 97.5578 100.618L98.404 101.933H97.5963L96.9521 100.925C96.7694 100.637 96.6155 100.416 96.4905 100.263C96.3751 100.109 96.2598 100.004 96.1636 99.9365C96.0675 99.8789 95.9713 99.8309 95.8751 99.8117C95.7982 99.7925 95.6828 99.7925 95.5194 99.7925H94.779V101.933H94.1348L94.1444 101.923ZM94.7886 99.2263H96.1636C96.4521 99.2263 96.6828 99.1975 96.8463 99.1399C97.0098 99.0823 97.1348 98.9864 97.2213 98.852C97.3078 98.7176 97.3463 98.5737 97.3463 98.4201C97.3463 98.1898 97.2598 98.0074 97.0963 97.8539C96.9328 97.7003 96.6636 97.6332 96.3078 97.6332H94.779V99.2263H94.7886Z" fill="white"/>
</g>
<defs>
<clipPath id="clip0_209_366">
<rect width="108" height="102" fill="white"/>
</clipPath>
</defs>
</svg>
