<svg width="113" height="107" viewBox="0 0 113 107" fill="none" xmlns="http://www.w3.org/2000/svg">
<g clip-path="url(#clip0_210_353)">
<path d="M75.84 65.2399C74.33 66.6199 72.7 67.84 70.94 68.9C70.72 68.13 70.49 67.39 70.23 66.65C67.74 59.57 63.11 53.4999 57.12 49.2099C56.25 48.5799 55.33 47.9899 54.39 47.4399C54.26 47.3599 54.11 47.28 53.98 47.2C54.43 47.32 54.88 47.4499 55.32 47.5999C56.17 47.8699 57.01 48.17 57.83 48.5C64.95 51.38 70.9 56.58 74.72 63.16C75.12 63.84 75.49 64.53 75.84 65.25V65.2399Z" fill="#0A90CD"/>
<path d="M85.8801 42.47C85.8801 50.28 82.9801 57.41 78.1901 62.85C77.7601 62.19 77.3201 61.54 76.8401 60.9C72.2701 54.79 65.7101 50.24 58.1201 48.22C63.6501 42.96 71.1301 39.73 79.3701 39.73C80.7701 39.73 82.1501 39.82 83.4901 40C84.2701 40.11 85.0501 40.24 85.8101 40.4C85.8601 41.08 85.8901 41.77 85.8901 42.47H85.8801Z" fill="#82502D"/>
<path d="M65.54 71.47C62.27 72.65 58.74 73.3 55.06 73.3C52.85 73.3 50.69 73.06 48.62 72.63C38.96 70.58 30.98 64 27 55.23C26.5 54.15 26.07 53.03 25.7 51.87C24.93 49.51 24.46 47.01 24.3 44.43C24.25 43.78 24.23 43.13 24.23 42.47C24.23 41.97 24.23 41.46 24.27 40.96C25.04 40.81 25.8 40.67 26.58 40.57C28.1 40.36 29.67 40.25 31.25 40.25C37.11 40.25 42.64 41.71 47.47 44.3C48.73 44.97 49.94 45.72 51.1 46.55C51.38 46.75 51.66 46.95 51.93 47.16C53.31 48.2 54.61 49.35 55.83 50.59C60.68 55.54 64.06 61.96 65.21 69.13C65.34 69.9 65.44 70.68 65.5 71.47H65.54Z" fill="#148742"/>
<path d="M96.15 29.86L85.52 37.81L83.42 39.38C81.88 25.07 69.78 13.94 55.06 13.94C40.34 13.94 28.23 25.08 26.7 39.38L24.69 37.22L16.17 28.09L28.32 27.13L28.95 27.08L28.71 26.46L24.27 14.8L36.04 18.21L36.77 18.42V4.96L46.06 12.98L46.62 13.46L46.85 12.76L50.99 0L57.3 11.65L65.62 0.34L67.64 13.54L78.57 5.97L76.47 19.01L89.34 15.9L82.86 27.76L96.15 29.86Z" fill="#FECA02"/>
<path d="M65.27 27.39C66.64 27.38 69.47 29.49 70.38 30.19C70.45 30.24 70.5301 30.16 70.5 30.08C67.46 24.02 64.3101 23.63 62.2901 24.28C61.1901 24.64 60.26 25.4 59.6101 26.36C58.8001 27.55 57.22 29.7 56.27 29.87C55.45 30.01 54.71 29.18 54.22 28.64C53.42 27.75 52.74 26.77 51.97 25.86C51.5201 25.33 51.06 24.78 50.46 24.4C50.17 24.22 49.85 24.08 49.51 24.04C49.11 24 48.73 24.12 48.35 24.25C47.96 24.37 47.59 24.52 47.21 24.68C46.55 24.96 45.9201 25.31 45.3301 25.71C44.4001 26.34 43.58 27.12 42.92 28.03C42.52 28.58 42.17 29.17 41.91 29.8C41.88 29.88 41.8301 29.96 41.8101 30.04C41.8001 30.08 41.79 30.14 41.85 30.13C41.91 30.11 41.96 30.06 42.01 30.03C42.09 29.97 42.17 29.91 42.26 29.85C42.4 29.75 42.54 29.65 42.67 29.55C42.88 29.4 43.09 29.25 43.3 29.11C43.42 29.02 43.54 28.94 43.67 28.85C43.81 28.75 43.95 28.64 44.1 28.55C47.52 26.41 47.64 27.73 47.64 27.73V31.5C47.52 32.32 44.57 35.04 44.57 35.04H47.14L47.02 39.4L43.67 39.98C50.71 40.64 68.46 39.82 68.46 39.82L65.1901 39C65.1901 39 64.7301 30.61 64.6201 28.08C64.6001 27.7 64.9 27.38 65.28 27.37L65.27 27.39ZM54.44 34.9C54.29 36.68 54.29 39.14 54.29 39.14H50.98V35.09L53.28 35.05C53.28 35.05 49.7801 32.14 51.3301 28.9C51.3301 28.9 53.23 30.65 54.73 31.29C54.82 31.33 54.88 31.4 54.88 31.5C54.9001 32.03 54.94 33.77 54.48 34.74C54.46 34.79 54.44 34.83 54.44 34.88V34.9ZM61.14 39.14H57.9501C57.9501 39.14 58.26 35.21 57.5601 33.81C57.38 32.99 57.48 31.95 57.53 31.54C57.54 31.43 57.6101 31.34 57.72 31.3C58.26 31.09 60 30.35 60.8 29.2C60.86 29.11 61 29.13 61.01 29.24C61.15 30.75 61.68 37.03 61.1301 39.14H61.14Z" fill="#201E1F"/>
<path d="M50.04 23.1101C51.4373 23.1101 52.57 21.9773 52.57 20.58C52.57 19.1828 51.4373 18.05 50.04 18.05C48.6427 18.05 47.51 19.1828 47.51 20.58C47.51 21.9773 48.6427 23.1101 50.04 23.1101Z" fill="#201E1F"/>
<path d="M62.4201 23.1101C63.8174 23.1101 64.9501 21.9773 64.9501 20.58C64.9501 19.1828 63.8174 18.05 62.4201 18.05C61.0229 18.05 59.8901 19.1828 59.8901 20.58C59.8901 21.9773 61.0229 23.1101 62.4201 23.1101Z" fill="#201E1F"/>
<path d="M56.23 28.3301C57.0474 28.3301 57.71 27.6675 57.71 26.8501C57.71 26.0327 57.0474 25.3701 56.23 25.3701C55.4126 25.3701 54.75 26.0327 54.75 26.8501C54.75 27.6675 55.4126 28.3301 56.23 28.3301Z" fill="#201E1F"/>
<path d="M46.15 61.77C46.15 61.77 46.26 58.78 45.96 58.28C45.71 57.85 44.88 56.9 43.68 57.19C43.27 57.29 42.98 57.66 42.98 58.08C42.98 59.37 42.98 60.4 42.98 60.4L43.3 61.37L42.23 61.39L42.12 57.63L41.8 57.65C41.36 57.68 40.94 57.51 40.64 57.18L40.41 56.93L39.4 57.43L40.24 60.61L39.1 60.63L38.36 57.22L38.8 56.17L37.41 57.52L38.21 59.33V60.57L37.41 60.44V58.86L36.57 57.22C36.57 57.22 37.18 55.92 36.93 54.95C36.93 54.95 36.43 56.59 36 56.61C36 56.61 36.8 54.95 36.86 53.96C36.89 53.44 36.86 52.97 36.81 52.64C36.76 52.29 36.87 51.94 37.09 51.66C37.45 51.22 38.02 50.67 38.64 50.7C39.65 50.74 41.52 51.46 42.05 51.31C42.58 51.16 43.46 50.62 43.46 50.62C43.46 50.62 42.72 50.12 42.82 49.91C42.9 49.74 43.57 49.82 43.57 49.82L44.54 49.9C44.54 49.9 43.37 48.71 43.61 48.51C43.88 48.28 44.81 49.27 44.81 49.27L47.17 49.16C47.17 49.16 47.96 48.73 48.24 48.81C48.32 48.83 48.32 48.82 48.31 48.9C48.25 49.31 47.15 49.98 47.15 49.98L48.24 49.92C48.24 49.92 49.02 49.69 49.21 50.05C49.4 50.41 49.15 50.85 48.62 50.87C48.09 50.89 47.42 50.66 47.34 51.06C47.26 51.46 47.02 52.72 47.02 52.72L46.37 53.48L47.06 53.94L46.89 58.48L47.1 61.76H46.13L46.15 61.77Z" fill="white"/>
<path d="M74.13 48.4098C74.13 48.4098 74.05 48.3698 74.05 48.3298C74.02 43.6698 73.24 40.2398 73.23 40.1998C73.22 40.1598 73.25 40.1098 73.29 40.0998C73.33 40.0898 73.38 40.1198 73.39 40.1598C73.39 40.1898 74.18 43.6398 74.21 48.3198C74.21 48.3698 74.17 48.3998 74.13 48.3998V48.4098Z" fill="#E88917"/>
<path d="M74.9001 47.9198C74.9001 47.9198 74.8201 47.8798 74.8201 47.8398C74.7001 44.0698 76.9101 39.3798 76.9301 39.3298C76.9501 39.2898 77.0001 39.2698 77.0401 39.2898C77.0801 39.3098 77.1001 39.3598 77.0801 39.3998C77.0601 39.4498 74.8701 44.0998 74.9801 47.8298C74.9801 47.8798 74.9501 47.9098 74.9001 47.9098V47.9198Z" fill="#E88917"/>
<path d="M73.6901 51.8699C73.6901 51.8699 73.6701 48.7699 72.1301 46.0999C72.1301 46.0999 74.2101 48.4299 74.2101 51.5399L73.6901 51.8599V51.8699Z" fill="#F9C842"/>
<path d="M73.6901 51.8998C73.6901 51.8998 73.6901 51.8998 73.6801 51.8998C73.6801 51.8998 73.6701 51.8898 73.6701 51.8798C73.6701 51.8498 73.6401 48.7498 72.1201 46.1198C72.1201 46.1098 72.1201 46.0898 72.1201 46.0798C72.1301 46.0798 72.1501 46.0798 72.1601 46.0798C72.1801 46.0998 74.2401 48.4598 74.2501 51.5398C74.2501 51.5398 74.2501 51.5598 74.2401 51.5598L73.7201 51.8798C73.7201 51.8798 73.7201 51.8798 73.7101 51.8798L73.6901 51.8998ZM72.3101 46.3698C73.5901 48.7698 73.7001 51.4398 73.7201 51.8298L74.1901 51.5398C74.1901 49.0498 72.8301 47.0498 72.3201 46.3698H72.3101Z" fill="#924B07"/>
<path d="M72.0601 51.56C72.0601 51.56 72.7701 49.76 72.3801 48.03C72.3801 48.03 73.2001 49.63 72.4801 51.44L72.0601 51.57V51.56Z" fill="#F9C842"/>
<path d="M72.06 51.59C72.06 51.59 72.05 51.59 72.04 51.59C72.04 51.59 72.04 51.57 72.04 51.56C72.04 51.54 72.74 49.74 72.36 48.04C72.36 48.03 72.36 48.01 72.38 48.01C72.39 48.01 72.41 48.01 72.41 48.02C72.41 48.04 73.22 49.65 72.51 51.45C72.51 51.45 72.51 51.46 72.49 51.47L72.07 51.6L72.06 51.59ZM72.45 48.28C72.69 49.75 72.21 51.23 72.1 51.52L72.45 51.41C72.99 50.04 72.64 48.79 72.45 48.28Z" fill="#924B07"/>
<path d="M71.9101 51.93C71.9101 51.93 72.2401 49.75 71.3501 48.21C71.3501 48.21 72.7001 49.4 72.3501 51.59L71.9101 51.93Z" fill="#F9C842"/>
<path d="M71.9101 51.9599C71.9101 51.9599 71.9101 51.9599 71.9001 51.9599C71.9001 51.9599 71.8901 51.94 71.8901 51.93C71.8901 51.91 72.2101 49.7499 71.3301 48.2299C71.3301 48.2199 71.3301 48.2 71.3301 48.2C71.3401 48.2 71.3601 48.2 71.3701 48.2C71.3801 48.21 72.7301 49.4299 72.3801 51.5999C72.3801 51.5999 72.3801 51.6099 72.3701 51.6199L71.9301 51.9599C71.9301 51.9599 71.9201 51.9599 71.9101 51.9599ZM71.4701 48.3699C72.1601 49.7299 71.9901 51.5 71.9501 51.86L72.3301 51.57C72.6001 49.85 71.8001 48.7499 71.4701 48.3699Z" fill="#924B07"/>
<path d="M74.1001 51.71C74.1001 51.71 74.0201 47.44 71.8701 43.74C71.8701 43.74 74.7501 46.99 74.8101 51.28L74.1001 51.72V51.71Z" fill="#FAA819"/>
<path d="M74.1001 51.74C74.1001 51.74 74.1001 51.74 74.0901 51.74C74.0901 51.74 74.0801 51.73 74.0801 51.72C74.0801 51.68 73.9801 47.41 71.8601 43.76C71.8601 43.75 71.8601 43.73 71.8601 43.72C71.8701 43.72 71.8901 43.72 71.9001 43.72C71.9301 43.75 74.7901 47.03 74.8501 51.27C74.8501 51.27 74.8501 51.29 74.8401 51.29L74.1301 51.73C74.1301 51.73 74.1301 51.73 74.1201 51.73L74.1001 51.74ZM72.0501 44C73.9101 47.39 74.1101 51.19 74.1201 51.66L74.7801 51.25C74.7301 47.7 72.7001 44.83 72.0501 43.99V44Z" fill="#924B07"/>
<path d="M75.6001 49.49C75.6001 49.49 75.7601 44.17 78.7301 39.2C78.7301 39.2 74.7701 43.7299 74.6401 49.07L75.6001 49.49Z" fill="#FAA819"/>
<path d="M75.6001 49.5199C75.6001 49.5199 75.6001 49.5199 75.5901 49.5199L74.6301 49.0999C74.6301 49.0999 74.6101 49.0899 74.6101 49.0699C74.6801 46.3099 75.7901 43.7699 76.7101 42.1199C77.7101 40.3399 78.7001 39.1899 78.7101 39.1799C78.7101 39.1699 78.7401 39.1699 78.7501 39.1799C78.7601 39.1799 78.7601 39.1999 78.7501 39.2199C75.8101 44.1199 75.6301 49.4399 75.6201 49.4899C75.6201 49.4899 75.6201 49.5099 75.6101 49.5099C75.6101 49.5099 75.6101 49.5099 75.6001 49.5099V49.5199ZM74.6701 49.0599L75.5801 49.4599C75.6001 48.9699 75.8901 44.0999 78.5401 39.4999C78.1901 39.9399 77.4801 40.8899 76.7601 42.1599C75.8401 43.7999 74.7401 46.3199 74.6701 49.0599Z" fill="#924B07"/>
<path d="M79.7202 52.4399C79.7202 52.4399 78.4302 49.3899 78.6502 45.9399C78.6502 45.9399 77.8302 49.3499 79.1302 52.4099L79.7202 52.4499V52.4399Z" fill="#FAA819"/>
<path d="M79.7201 52.4699L79.1301 52.4299C79.1301 52.4299 79.1101 52.4299 79.1101 52.4099C77.8201 49.3799 78.6201 45.9599 78.6301 45.9299C78.6301 45.9199 78.6501 45.9099 78.6601 45.9099C78.6701 45.9099 78.6801 45.9199 78.6801 45.9399C78.4701 49.3399 79.7301 52.3999 79.7501 52.4299C79.7501 52.4299 79.7501 52.4499 79.7501 52.4599C79.7501 52.4599 79.7401 52.4699 79.7301 52.4699H79.7201ZM79.1501 52.3799L79.6801 52.4099C79.5401 52.0499 78.5101 49.3599 78.6101 46.3099C78.4401 47.2699 78.1201 49.9499 79.1501 52.3799Z" fill="#924B07"/>
<path d="M79.59 52.51C79.59 52.51 77.61 49.47 77.17 45.71C77.17 45.71 76.95 49.55 78.95 52.59L79.59 52.51Z" fill="#F9C842"/>
<path d="M78.9502 52.6099C78.9502 52.6099 78.9302 52.6099 78.9302 52.5999C76.9502 49.5899 77.1402 45.7499 77.1402 45.7099C77.1402 45.6999 77.1502 45.6799 77.1702 45.6799C77.1802 45.6799 77.2002 45.6899 77.2002 45.6999C77.6302 49.4099 79.6002 52.4599 79.6202 52.4899C79.6202 52.4899 79.6202 52.5099 79.6202 52.5199C79.6202 52.5199 79.6102 52.5299 79.6002 52.5399L78.9602 52.6199L78.9502 52.6099ZM77.1902 46.0799C77.1902 47.1099 77.3602 50.1099 78.9602 52.5599L79.5402 52.4899C79.3202 52.1399 77.6702 49.4199 77.1802 46.0799H77.1902Z" fill="#924B07"/>
<path d="M77.8901 51.5499C77.8901 51.5499 76.8901 49.8799 76.9701 47.6199C76.9701 47.6199 76.4601 49.9899 77.4701 51.6599L77.9001 51.5499H77.8901Z" fill="#FAA819"/>
<path d="M77.4602 51.6899C77.4602 51.6899 77.4402 51.6899 77.4402 51.6799C76.4402 50.0199 76.9402 47.6499 76.9402 47.6199C76.9402 47.6099 76.9602 47.5999 76.9702 47.5999C76.9802 47.5999 76.9902 47.6099 76.9902 47.6299C76.9202 49.8499 77.9002 51.5299 77.9102 51.5399V51.5599C77.9102 51.5599 77.9002 51.5699 77.8902 51.5799L77.4602 51.6899ZM76.9402 47.9799C76.8402 48.6999 76.7302 50.3699 77.4802 51.6299L77.8502 51.5399C77.7202 51.3099 76.9702 49.8799 76.9402 47.9799Z" fill="#924B07"/>
<path d="M77.7502 51.8398C77.7502 51.8398 76.5602 50.2998 76.3802 48.0498C76.3802 48.0498 76.1502 50.4598 77.3402 51.9998L77.7502 51.8398Z" fill="#F9C842"/>
<path d="M77.34 52.03C77.34 52.03 77.32 52.03 77.32 52.02C76.13 50.49 76.35 48.07 76.35 48.05C76.35 48.04 76.36 48.03 76.38 48.03C76.38 48.03 76.41 48.04 76.41 48.06C76.6 50.28 77.77 51.82 77.78 51.84V51.86C77.78 51.86 77.78 51.87 77.76 51.88L77.35 52.04L77.34 52.03ZM76.39 48.4C76.38 49.12 76.46 50.8 77.35 51.96L77.71 51.82C77.56 51.61 76.64 50.28 76.39 48.4Z" fill="#924B07"/>
<path d="M76.0701 51.4998C76.0701 51.4998 75.4201 48.3498 77.6401 44.3098C77.6401 44.3098 74.3701 48.4898 75.0501 51.6398L76.0701 51.5098V51.4998Z" fill="#F9C842"/>
<path d="M75.0401 51.66C75.0401 51.66 75.0201 51.66 75.0101 51.64C74.3401 48.52 77.5701 44.33 77.6101 44.29C77.6101 44.28 77.6301 44.28 77.6501 44.29C77.6601 44.29 77.6701 44.31 77.6501 44.33C75.4601 48.32 76.0801 51.47 76.0901 51.5V51.52C76.0901 51.52 76.0801 51.53 76.0701 51.53L75.0501 51.66H75.0401ZM77.4301 44.62C76.7101 45.63 74.5201 48.99 75.0601 51.6L76.0301 51.47C75.9701 51.15 75.5501 48.27 77.4301 44.62Z" fill="#924B07"/>
<path d="M75.7901 51.83C75.7901 51.83 74.1901 47.79 75.3001 42.73C75.3001 42.73 73.1301 47.92 74.7601 51.96L75.7901 51.84V51.83Z" fill="#F9C842"/>
<path d="M74.7601 51.9799C74.7601 51.9799 74.7401 51.9799 74.7301 51.9599C73.8901 49.8699 74.0801 47.4599 74.3801 45.8199C74.7101 44.0399 75.2601 42.7299 75.2601 42.7099C75.2601 42.6999 75.2801 42.6899 75.2901 42.6899C75.3001 42.6899 75.3101 42.7099 75.3101 42.7199C74.2101 47.7199 75.7801 51.7699 75.8001 51.8099V51.8299C75.8001 51.8299 75.7901 51.8399 75.7801 51.8399L74.7501 51.9599L74.7601 51.9799ZM75.2001 43.0499C75.0201 43.5399 74.6801 44.5699 74.4401 45.8299C74.1301 47.4699 73.9401 49.8499 74.7701 51.9199L75.7401 51.7999C75.6001 51.4099 74.2801 47.6699 75.1901 43.0499H75.2001Z" fill="#924B07"/>
<path d="M79.3602 35.3499C79.2202 35.4099 79.1002 35.5099 78.9902 35.6199C78.9802 35.6199 78.9702 35.6199 78.9502 35.6199C79.1702 35.1499 79.1402 34.6899 79.1002 34.4699C79.1602 34.3499 79.2302 34.2299 79.2802 34.0999C79.2902 34.0799 79.2602 34.0499 79.2402 34.0699C79.1802 34.1399 79.1202 34.2299 79.0602 34.3099C79.0602 34.3099 79.0402 34.2999 79.0302 34.3099C79.0302 34.3099 79.0202 34.3099 79.0102 34.3099C79.1802 33.8199 79.1002 33.2799 79.0702 33.1199C79.1402 32.9899 79.2002 32.8599 79.2702 32.7299C79.2902 32.6899 79.2302 32.6599 79.2102 32.6999C79.1502 32.8099 79.0802 32.9199 79.0202 33.0399C79.0202 32.6499 78.9002 32.2299 78.8402 32.0299C78.8902 31.8799 78.9402 31.7299 79.0102 31.5799C79.0302 31.5399 78.9702 31.5199 78.9502 31.5499C78.8902 31.6599 78.8402 31.7699 78.7902 31.8899C78.7902 31.8899 78.7802 31.8899 78.7702 31.8899C78.7102 31.2699 78.2502 30.5699 78.2202 30.5399C78.2202 30.3999 78.2202 30.2699 78.2202 30.1299C78.2202 30.0999 78.1702 30.0999 78.1702 30.1299C78.1702 30.2799 78.1602 30.4299 78.1502 30.5699C77.9302 30.8399 77.7702 31.2199 77.6902 31.6499C77.6802 31.6499 77.6702 31.6399 77.6702 31.6399C77.6602 31.6399 77.6402 31.6399 77.6302 31.6399C77.5902 31.5299 77.5402 31.4299 77.4802 31.3199C77.4602 31.2899 77.4202 31.3199 77.4302 31.3499C77.4902 31.4599 77.5402 31.5799 77.5802 31.6999C77.4302 31.9499 77.3802 32.3099 77.3602 32.5499C77.3602 32.5499 77.3602 32.5499 77.3502 32.5499C77.3102 32.4399 77.2702 32.3299 77.2202 32.2299C77.2102 32.2099 77.1702 32.2299 77.1802 32.2399C77.2302 32.3499 77.2702 32.4699 77.3002 32.5899C77.0602 32.8699 77.0302 33.2599 77.0502 33.5299H77.0402C77.0302 33.5299 77.0102 33.5299 77.0102 33.5299C76.9502 33.4299 76.8902 33.3399 76.8202 33.2499C76.8002 33.2199 76.7602 33.2499 76.7802 33.2799C76.8502 33.3799 76.9102 33.4799 76.9702 33.5899C76.7902 33.8799 76.7802 34.1599 76.8002 34.3499H76.7902H76.7702C76.7702 34.3499 76.7602 34.3499 76.7502 34.3699C76.7502 34.3699 76.7502 34.3799 76.7502 34.3899C76.6902 34.2899 76.6302 34.1999 76.5602 34.0999C76.5402 34.0799 76.5002 34.0999 76.5202 34.1299C76.5902 34.2399 76.6602 34.3399 76.7202 34.4599C76.5602 34.8999 76.6102 35.5399 76.6502 35.8699C76.6402 35.8699 76.6302 35.8599 76.6202 35.8599C76.5602 35.7499 76.5002 35.6399 76.4502 35.5299C76.4302 35.4999 76.3802 35.5199 76.4002 35.5499C76.4502 35.6699 76.5102 35.7899 76.5702 35.9099C76.5302 36.0299 76.3902 36.5099 76.4602 37.0299C76.4002 36.9399 76.3302 36.8499 76.2702 36.7599C76.2502 36.7299 76.2002 36.7599 76.2202 36.7899C76.3002 36.8999 76.3802 37.0199 76.4402 37.1299C76.3002 37.3399 76.2802 37.5899 76.2902 37.7799C76.2902 37.7799 76.2802 37.7799 76.2702 37.7999C76.1002 38.2699 76.2402 38.7899 76.4202 39.1099C76.5702 39.3699 76.7602 39.5599 76.9402 39.5899C76.9802 39.5899 77.0202 39.5999 77.0602 39.6099C77.8702 39.6499 78.4202 38.2999 78.4402 38.2399V38.2199C78.4402 38.2199 78.4302 38.2099 78.4202 38.2099H78.4002C78.4002 38.2099 78.3602 38.2099 78.3402 38.2099C78.6002 37.7899 78.6902 37.2899 78.7202 37.0599C78.7202 37.0599 78.7202 37.0599 78.7302 37.0499C78.8102 36.9599 78.9102 36.8899 78.9902 36.8099C79.0102 36.7899 78.9902 36.7599 78.9602 36.7699C78.8802 36.7999 78.8002 36.8599 78.7302 36.9199C78.7302 36.9199 78.7302 36.9199 78.7302 36.9099C78.8902 36.4999 79.0002 35.8799 79.0202 35.7199C79.1202 35.6099 79.2302 35.5099 79.3702 35.4399C79.4102 35.4199 79.3902 35.3599 79.3502 35.3799L79.3602 35.3499ZM78.6802 36.8799C78.2602 36.9299 77.9002 37.1399 77.6402 37.3599C77.6402 37.1699 77.6202 36.9299 77.5202 36.6899C77.6802 36.3999 78.1702 35.6899 78.9802 35.6699C78.9602 35.8199 78.8502 36.4699 78.6802 36.8799ZM78.7002 36.9299C78.6902 37.0799 78.6102 37.6899 78.3002 38.1799C77.8402 38.1999 77.5002 38.4499 77.3102 38.6299C77.3802 38.3299 77.3402 38.0699 77.2502 37.8499C77.4302 37.6099 77.9602 37.0099 78.7002 36.9299ZM77.0802 39.5299C77.0802 39.5299 77.0102 39.5299 76.9702 39.5199C76.8102 39.4899 76.6302 39.3099 76.4902 39.0599C76.3202 38.7499 76.1902 38.2699 76.3302 37.8199C76.4502 37.8999 76.9302 38.2599 77.1302 38.8499C77.1302 38.8499 77.1402 38.8699 77.1502 38.8699C77.1602 38.8699 77.1702 38.8699 77.1802 38.8599C77.1802 38.8599 77.6502 38.2099 78.4002 38.2299C78.3102 38.4499 77.7902 39.5599 77.0902 39.5299H77.0802ZM76.5202 37.1099C76.6602 37.1999 77.5202 37.7699 77.2302 38.7099C77.2002 38.7399 77.1802 38.7699 77.1602 38.7899C76.9602 38.2299 76.5102 37.8799 76.3702 37.7899C76.3502 37.5999 76.3702 37.3299 76.5202 37.1099ZM76.6302 35.8999C77.5002 36.3099 77.6102 36.9899 77.5902 37.4099C77.4202 37.5599 77.3002 37.6999 77.2202 37.7999C77.0202 37.3699 76.6202 37.1099 76.5402 37.0599C76.4402 36.5399 76.5902 36.0299 76.6302 35.8999ZM77.0602 33.5899C77.2002 33.6699 77.9802 34.1399 77.9602 35.0099C77.8502 35.1399 77.7602 35.2599 77.6902 35.3499C77.4502 34.8899 77.0502 34.5399 76.8802 34.4099C76.8502 34.2299 76.8402 33.9099 77.0602 33.5899ZM77.3702 32.6199C77.4902 32.6999 78.1002 33.1499 78.1702 33.7899C78.0202 33.9699 77.9102 34.1499 77.8302 34.2699C77.6202 33.8899 77.2802 33.6499 77.1302 33.5599C77.1102 33.2999 77.1302 32.8899 77.3702 32.6099V32.6199ZM78.7202 31.9099C78.5802 31.9799 78.4502 32.1099 78.3402 32.2499C78.1702 31.9799 77.8802 31.7599 77.7402 31.6699C77.8102 31.2399 77.9702 30.8599 78.1902 30.5899C78.2802 30.7299 78.6602 31.3599 78.7102 31.9099H78.7202ZM78.9802 33.0799C78.6902 33.2299 78.4302 33.4799 78.2202 33.7299C78.1802 33.4899 78.0802 33.2699 77.9502 33.0999C78.0702 32.7999 78.3702 32.1499 78.7802 31.9499C78.8202 32.0799 79.0002 32.6099 78.9902 33.0799H78.9802ZM77.8702 36.1399C77.8902 35.8799 77.8202 35.6299 77.7102 35.4099C77.9302 35.0999 78.4202 34.4899 79.0302 34.3599C79.0602 34.4799 79.1802 35.0499 78.9002 35.6199C78.4602 35.6599 78.1202 35.8899 77.8702 36.1399ZM78.0102 34.9499C78.0102 34.7099 77.9502 34.5099 77.8602 34.3299C78.0502 34.0299 78.4902 33.3699 79.0302 33.1099C79.0602 33.2499 79.1502 33.8199 78.9602 34.3199C78.5802 34.4199 78.2502 34.6799 78.0102 34.9399V34.9499ZM78.3102 32.2999C78.1202 32.5599 77.9802 32.8599 77.9002 33.0499C77.7202 32.8099 77.5102 32.6499 77.4202 32.5899C77.4402 32.3499 77.4902 31.9299 77.6702 31.6899C77.7602 31.7499 78.1302 31.9899 78.3102 32.2999ZM77.8102 36.1999C77.6602 36.3599 77.5602 36.5199 77.4902 36.6299C77.3602 36.3599 77.1302 36.0899 76.7202 35.8799C76.6802 35.5499 76.6202 34.8599 76.7902 34.4199C76.9602 34.5499 77.9102 35.3099 77.8002 36.1999H77.8102Z" fill="#924B07"/>
<path d="M77.75 31.6698C77.89 31.7598 78.18 31.9798 78.35 32.2498C78.46 32.1098 78.59 31.9798 78.73 31.9098C78.68 31.3698 78.3 30.7398 78.21 30.5898C77.99 30.8598 77.83 31.2398 77.76 31.6698H77.75Z" fill="#F9C842"/>
<path d="M77.6702 31.6899C77.5002 31.9299 77.4402 32.3499 77.4202 32.5899C77.5102 32.6499 77.7202 32.8099 77.9002 33.0499C77.9802 32.8599 78.1202 32.5599 78.3102 32.2999C78.1202 31.9899 77.7602 31.7399 77.6702 31.6899Z" fill="#F9C842"/>
<path d="M77.9402 33.0999C78.0702 33.2799 78.1802 33.4899 78.2102 33.7299C78.4202 33.4799 78.6802 33.22 78.9702 33.08C78.9802 32.61 78.8102 32.08 78.7602 31.95C78.3602 32.15 78.0502 32.7999 77.9302 33.0999H77.9402Z" fill="#F9C842"/>
<path d="M77.82 34.2699C77.9 34.1399 78.02 33.9699 78.16 33.7899C78.1 33.1499 77.48 32.6999 77.36 32.6199C77.11 32.8999 77.1 33.3099 77.12 33.5699C77.27 33.6599 77.6 33.8899 77.82 34.2799V34.2699Z" fill="#F9C842"/>
<path d="M79.0301 33.1099C78.4901 33.3699 78.0401 34.0199 77.8601 34.3299C77.9501 34.5099 78.0101 34.7099 78.0101 34.9499C78.2501 34.6899 78.5801 34.4199 78.9601 34.3299C79.1501 33.8299 79.0601 33.2599 79.0301 33.1199V33.1099Z" fill="#F9C842"/>
<path d="M77.6802 35.3498C77.7502 35.2498 77.8402 35.1298 77.9502 35.0098C77.9702 34.1398 77.1902 33.6698 77.0502 33.5898C76.8302 33.9098 76.8402 34.2298 76.8702 34.4098C77.0402 34.5398 77.4402 34.8898 77.6802 35.3498Z" fill="#F9C842"/>
<path d="M79.03 34.3599C78.42 34.4899 77.93 35.0999 77.71 35.4099C77.82 35.6299 77.89 35.8799 77.87 36.1399C78.12 35.8899 78.46 35.6599 78.9 35.6199C79.18 35.0499 79.06 34.4899 79.03 34.3599Z" fill="#F9C842"/>
<path d="M76.79 34.4199C76.61 34.8599 76.67 35.5599 76.72 35.8799C77.13 36.0899 77.36 36.3599 77.49 36.6299C77.56 36.5199 77.66 36.3599 77.81 36.1999C77.91 35.3099 76.97 34.5499 76.8 34.4199H76.79Z" fill="#F9C842"/>
<path d="M77.52 36.6899C77.62 36.9299 77.65 37.1699 77.64 37.3599C77.9 37.1399 78.26 36.9299 78.68 36.8799C78.85 36.4699 78.96 35.8199 78.98 35.6699C78.17 35.6899 77.68 36.4099 77.52 36.6899Z" fill="#F9C842"/>
<path d="M76.5401 37.0599C76.6201 37.1099 77.0201 37.3699 77.2201 37.7999C77.3001 37.6999 77.4201 37.5599 77.5901 37.4099C77.6201 36.9999 77.5101 36.3099 76.6301 35.8999C76.5901 36.0199 76.4401 36.5299 76.5401 37.0599Z" fill="#F9C842"/>
<path d="M77.24 37.8499C77.33 38.0699 77.37 38.3299 77.3 38.6299C77.49 38.4499 77.84 38.1999 78.29 38.1799C78.61 37.6999 78.68 37.0799 78.69 36.9299C77.95 37.0099 77.42 37.6199 77.24 37.8499Z" fill="#F9C842"/>
<path d="M77.1501 38.7899C77.1501 38.7899 77.1901 38.7399 77.2201 38.7099C77.5101 37.7699 76.6601 37.1999 76.5101 37.1099C76.3501 37.3199 76.3401 37.5999 76.3601 37.7899C76.5001 37.8899 76.9401 38.2299 77.1501 38.7899Z" fill="#F9C842"/>
<path d="M77.1701 38.8598C77.1701 38.8598 77.1501 38.8698 77.1401 38.8698C77.1301 38.8698 77.1201 38.8698 77.1201 38.8498C76.9201 38.2498 76.4501 37.8998 76.3201 37.8198C76.1801 38.2598 76.3101 38.7498 76.4801 39.0598C76.6201 39.3098 76.8001 39.4798 76.9601 39.5198C77.0001 39.5198 77.0301 39.5298 77.0701 39.5298C77.7701 39.5598 78.2901 38.4498 78.3801 38.2298C77.6201 38.2098 77.1601 38.8498 77.1601 38.8598H77.1701Z" fill="#F9C842"/>
<path d="M78.72 31.9099C78.72 31.8099 78.69 31.7099 78.67 31.6099C78.63 31.6899 78.59 31.7599 78.51 31.7999C78.41 31.8599 78.29 31.8499 78.19 31.7999C78.09 31.7499 78.01 31.6699 77.94 31.5799C77.89 31.5099 77.85 31.4399 77.82 31.3599C77.79 31.4599 77.77 31.5599 77.75 31.6599C77.89 31.7499 78.18 31.9699 78.35 32.2399C78.46 32.0999 78.59 31.9699 78.73 31.8999L78.72 31.9099Z" fill="#FAA819"/>
<path d="M78.9802 33.08C78.9802 32.97 78.9802 32.87 78.9602 32.76C78.9002 32.83 78.8402 32.89 78.7602 32.94C78.6302 33.04 78.4602 33.11 78.2902 33.07C78.1802 33.04 78.0802 32.95 78.0502 32.84C78.0002 32.94 77.9602 33.03 77.9302 33.11C78.0602 33.29 78.1702 33.5 78.2002 33.74C78.4102 33.49 78.6702 33.23 78.9602 33.09L78.9802 33.08Z" fill="#FAA819"/>
<path d="M77.9102 33.0499C77.9902 32.8599 78.1302 32.5599 78.3202 32.2999C78.2802 32.2399 78.2402 32.1899 78.2002 32.1299C78.1702 32.2599 78.1002 32.3799 77.9902 32.4499C77.8702 32.5299 77.7202 32.5499 77.5802 32.5299C77.5302 32.5299 77.4802 32.5099 77.4402 32.4899C77.4402 32.5299 77.4402 32.5599 77.4402 32.5899C77.5302 32.6499 77.7402 32.8099 77.9202 33.0499H77.9102Z" fill="#FAA819"/>
<path d="M79.0101 34.1598C78.7701 34.2598 78.5001 34.2998 78.2401 34.2498C78.1901 34.2498 78.1401 34.2298 78.1101 34.1998C78.0601 34.1598 78.0501 34.1098 78.0501 34.0498C77.9701 34.1598 77.9001 34.2598 77.8601 34.3398C77.9501 34.5198 78.0101 34.7198 78.0101 34.9598C78.2501 34.6998 78.5801 34.4298 78.9601 34.3398C78.9801 34.2898 79.0001 34.2298 79.0101 34.1698V34.1598Z" fill="#FAA819"/>
<path d="M78.0901 33.4699C78.0701 33.5499 78.0301 33.6199 77.9701 33.6699C77.8001 33.7999 77.5501 33.7399 77.3701 33.6199C77.2801 33.5599 77.2001 33.4899 77.1201 33.4199C77.1201 33.4699 77.1201 33.5199 77.1201 33.5599C77.2701 33.6499 77.6001 33.8799 77.8201 34.2699C77.9001 34.1399 78.0201 33.9699 78.1601 33.7899C78.1501 33.6799 78.1201 33.5699 78.0801 33.4799L78.0901 33.4699Z" fill="#FAA819"/>
<path d="M78.97 35.4399C78.8 35.5299 78.61 35.5699 78.41 35.5599C78.28 35.5599 78.14 35.5199 78.04 35.4299C77.95 35.3499 77.91 35.2399 77.92 35.1199C77.83 35.2199 77.76 35.3199 77.71 35.3999C77.82 35.6199 77.89 35.8699 77.87 36.1299C78.12 35.8799 78.46 35.6499 78.9 35.6099C78.93 35.5499 78.95 35.4899 78.98 35.4299L78.97 35.4399Z" fill="#FAA819"/>
<path d="M77.9501 35.01C77.9501 34.85 77.9301 34.7 77.8901 34.56C77.8601 34.6 77.8301 34.63 77.7901 34.66C77.7301 34.7 77.6501 34.71 77.5701 34.71C77.4101 34.7 77.2501 34.62 77.1201 34.53C77.0201 34.46 76.9401 34.37 76.8601 34.28C76.8601 34.33 76.8601 34.38 76.8701 34.42C77.0401 34.55 77.4401 34.9 77.6801 35.36C77.7501 35.26 77.8401 35.14 77.9501 35.02V35.01Z" fill="#FAA819"/>
<path d="M78.75 36.6799C78.52 36.7599 78.28 36.7899 78.05 36.7299C77.98 36.7099 77.9 36.6799 77.85 36.6299C77.77 36.5599 77.74 36.4499 77.75 36.3499C77.65 36.4799 77.57 36.5999 77.52 36.6799C77.62 36.9199 77.65 37.1599 77.64 37.3499C77.9 37.1299 78.26 36.9199 78.68 36.8699C78.7 36.8099 78.73 36.7399 78.75 36.6699V36.6799Z" fill="#FAA819"/>
<path d="M77.7602 35.6899C77.7602 35.6899 77.6902 35.7699 77.6502 35.8099C77.5502 35.8999 77.4402 35.9899 77.3002 35.9999C77.1902 35.9999 77.0802 35.9599 76.9902 35.8999C76.8902 35.8399 76.7902 35.7599 76.7002 35.6699C76.7002 35.7499 76.7202 35.8299 76.7202 35.8899C77.1302 36.0999 77.3602 36.3699 77.4902 36.6399C77.5602 36.5299 77.6602 36.3699 77.8102 36.2099C77.8302 36.0299 77.8102 35.8599 77.7602 35.6999V35.6899Z" fill="#FAA819"/>
<path d="M78.44 37.91C78.25 38 78.05 38.06 77.85 38.02C77.76 38.01 77.68 37.97 77.62 37.91C77.55 37.83 77.52 37.72 77.53 37.61C77.53 37.58 77.53 37.55 77.55 37.52C77.42 37.65 77.32 37.77 77.25 37.85C77.34 38.07 77.38 38.33 77.31 38.63C77.5 38.45 77.85 38.2 78.3 38.18C78.36 38.09 78.41 38 78.45 37.91H78.44Z" fill="#FAA819"/>
<path d="M76.54 37.0599C76.62 37.1099 77.02 37.3699 77.22 37.7999C77.3 37.6999 77.42 37.5599 77.59 37.4099C77.59 37.2999 77.59 37.1799 77.57 37.0399C77.51 37.1099 77.45 37.1699 77.36 37.1999C77.19 37.2699 76.99 37.1999 76.83 37.1099C76.71 37.0399 76.61 36.9399 76.51 36.8599C76.51 36.9299 76.52 36.9999 76.54 37.0699V37.0599Z" fill="#FAA819"/>
<path d="M77.2701 38.1598C77.2701 38.1598 77.1701 38.1598 77.1301 38.1598C76.9501 38.1398 76.7901 38.0498 76.6601 37.9298C76.5501 37.8298 76.4501 37.6998 76.3601 37.5798C76.3601 37.6498 76.3601 37.7198 76.3601 37.7798C76.5001 37.8798 76.9401 38.2198 77.1501 38.7798C77.1701 38.7598 77.1901 38.7298 77.2201 38.6998C77.2801 38.4998 77.2901 38.3198 77.2701 38.1598Z" fill="#FAA819"/>
<path d="M77.99 38.94C77.99 38.94 77.97 38.96 77.96 38.97C77.79 39.12 77.6 39.25 77.38 39.3C77.14 39.35 76.87 39.27 76.69 39.1C76.61 39.03 76.55 38.94 76.49 38.86C76.42 38.75 76.35 38.63 76.29 38.51C76.33 38.72 76.4 38.91 76.49 39.06C76.63 39.31 76.81 39.48 76.97 39.52C77.01 39.52 77.04 39.53 77.08 39.53C77.45 39.55 77.76 39.25 77.99 38.94Z" fill="#FAA819"/>
<path d="M78.4 31.1C78.38 31.04 78.36 30.99 78.33 30.93C78.31 30.87 78.28 30.8 78.24 30.75C78.21 30.72 78.17 30.75 78.18 30.79C78.21 30.85 78.23 30.92 78.25 30.98C78.27 31.04 78.29 31.09 78.33 31.13C78.36 31.16 78.41 31.13 78.4 31.1Z" fill="#FDF498"/>
<path d="M78.4602 31.37C78.4602 31.37 78.4602 31.34 78.4602 31.32C78.4602 31.27 78.3802 31.28 78.4002 31.32C78.4002 31.34 78.4202 31.36 78.4302 31.38C78.4402 31.4 78.4802 31.39 78.4802 31.36L78.4602 31.37Z" fill="#FDF498"/>
<path d="M78.73 32.14C78.73 32.14 78.65 32.11 78.66 32.16C78.66 32.22 78.7 32.28 78.72 32.34C78.73 32.37 78.79 32.36 78.79 32.32C78.79 32.25 78.75 32.21 78.73 32.14Z" fill="#FDF498"/>
<path d="M77.7301 31.8698C77.7301 31.8698 77.7301 31.8498 77.7101 31.8398C77.6901 31.8398 77.6801 31.8398 77.6701 31.8498C77.6701 31.8498 77.6701 31.8698 77.6601 31.8798C77.6601 31.8998 77.6501 31.9198 77.6401 31.9398C77.6201 31.9798 77.6101 32.0198 77.6201 32.0698C77.6201 32.1098 77.6801 32.1098 77.7001 32.0698C77.7201 32.0298 77.7301 31.9898 77.7401 31.9398C77.7401 31.9198 77.7501 31.8998 77.7401 31.8698H77.7301Z" fill="#FDF498"/>
<path d="M77.4 32.8099C77.4 32.8099 77.33 32.8799 77.31 32.9199C77.29 32.9699 77.26 33.0299 77.28 33.0799C77.29 33.1199 77.34 33.1199 77.36 33.0799C77.38 33.0399 77.38 32.9999 77.39 32.9599C77.4 32.9199 77.43 32.8899 77.44 32.8499C77.45 32.8199 77.42 32.7899 77.39 32.8099H77.4Z" fill="#FDF498"/>
<path d="M79 33.35C79 33.3 78.93 33.3 78.92 33.35C78.9 33.47 78.9 33.6 78.92 33.72C78.92 33.76 78.99 33.76 79 33.72C79.02 33.6 79.01 33.47 79 33.35Z" fill="#FDF498"/>
<path d="M77.05 33.7298C77 33.8098 76.98 33.9098 76.97 33.9998C76.97 34.0298 77.02 34.0498 77.04 34.0198C77.08 33.9398 77.1 33.8498 77.12 33.7598C77.12 33.7198 77.07 33.6898 77.05 33.7298Z" fill="#FDF498"/>
<path d="M76.8401 34.6799C76.7501 34.7599 76.7601 34.9599 76.7801 35.0699C76.7801 35.1099 76.8401 35.1099 76.8601 35.0699C76.8801 35.0099 76.8701 34.9499 76.8601 34.8999C76.8601 34.8299 76.8601 34.7799 76.8901 34.7199C76.8901 34.6899 76.8601 34.6599 76.8401 34.6899V34.6799Z" fill="#FDF498"/>
<path d="M76.86 35.2199C76.86 35.2199 76.8 35.1799 76.8 35.2199C76.8 35.2499 76.8 35.2899 76.8 35.3199C76.8 35.3399 76.84 35.3499 76.85 35.3199C76.86 35.2899 76.85 35.2499 76.85 35.2199H76.86Z" fill="#FDF498"/>
<path d="M78.98 34.5999C78.98 34.5399 78.9 34.5399 78.89 34.5999C78.88 34.6899 78.87 34.7799 78.89 34.8699C78.89 34.9099 78.97 34.9199 78.98 34.8699C79 34.7799 78.99 34.6899 78.98 34.5999Z" fill="#FDF498"/>
<path d="M78.9001 35.0599C78.9001 35.0599 78.8801 35.1199 78.8801 35.1499C78.8801 35.1799 78.9201 35.1899 78.9401 35.1699C78.9601 35.1399 78.9701 35.1099 78.9701 35.0699C78.9701 35.0299 78.9101 35.0199 78.9001 35.0599Z" fill="#FDF498"/>
<path d="M76.7301 36.2C76.7301 36.2 76.6901 36.17 76.6701 36.19C76.6201 36.26 76.6201 36.38 76.6201 36.47C76.6201 36.51 76.6801 36.52 76.6901 36.48C76.7001 36.43 76.7101 36.39 76.7101 36.34C76.7101 36.29 76.7301 36.25 76.7201 36.2H76.7301Z" fill="#FDF498"/>
<path d="M76.5901 36.67C76.5901 36.67 76.5901 36.69 76.5901 36.71C76.5901 36.74 76.6401 36.74 76.6501 36.71C76.6501 36.7 76.6501 36.69 76.6501 36.68C76.6601 36.62 76.5701 36.62 76.5801 36.68L76.5901 36.67Z" fill="#FDF498"/>
<path d="M78.78 35.8499C78.78 35.9499 78.74 36.0399 78.72 36.1399C78.72 36.1799 78.77 36.2099 78.79 36.1699C78.84 36.0699 78.87 35.9699 78.87 35.8499C78.87 35.7899 78.79 35.7899 78.78 35.8499Z" fill="#FDF498"/>
<path d="M76.8301 37.62C76.7901 37.5 76.73 37.37 76.63 37.29C76.6 37.26 76.5501 37.3 76.5801 37.34C76.6501 37.44 76.6901 37.55 76.7601 37.65C76.7801 37.68 76.8401 37.67 76.8301 37.62Z" fill="#FDF498"/>
<path d="M78.1901 37.2199C78.0601 37.2199 77.9601 37.3899 77.9001 37.4899C77.8701 37.5399 77.9401 37.5799 77.9701 37.5299C78.0101 37.4799 78.0501 37.4399 78.0901 37.3899C78.1301 37.3499 78.1801 37.3199 78.2201 37.2799C78.2401 37.2599 78.2301 37.1999 78.1901 37.2099V37.2199Z" fill="#FDF498"/>
<path d="M78.4001 37.1199C78.4001 37.1199 78.3401 37.1199 78.3101 37.1399C78.2601 37.1799 78.3301 37.2499 78.3701 37.2099C78.3901 37.1899 78.4001 37.1799 78.4101 37.1499C78.4101 37.1399 78.4101 37.1299 78.3901 37.1199H78.4001Z" fill="#FDF498"/>
<path d="M76.7401 38.4998C76.7101 38.4398 76.6801 38.3898 76.6401 38.3298C76.5901 38.2598 76.5601 38.1998 76.5201 38.1198C76.5001 38.0898 76.4601 38.1098 76.4701 38.1398C76.4701 38.2098 76.5201 38.2698 76.5601 38.3298C76.6001 38.3998 76.6501 38.4598 76.7001 38.5298C76.7201 38.5598 76.7701 38.5298 76.7601 38.4898L76.7401 38.4998Z" fill="#FDF498"/>
<path d="M78 38.3699C77.82 38.3699 77.68 38.5199 77.59 38.6699C77.57 38.6999 77.62 38.7499 77.65 38.7199C77.7 38.6599 77.76 38.6099 77.82 38.5699C77.89 38.5299 77.96 38.5099 78.03 38.4599C78.06 38.4399 78.03 38.3699 78 38.3699Z" fill="#FDF498"/>
<path d="M78.1901 38.3299C78.1901 38.3299 78.1701 38.3299 78.1601 38.3299C78.1401 38.3299 78.1201 38.3499 78.1201 38.3599C78.1201 38.3799 78.1401 38.3899 78.1501 38.3999C78.1801 38.3999 78.2001 38.3999 78.2101 38.3699C78.2301 38.3499 78.2101 38.3199 78.1801 38.3299H78.1901Z" fill="#FDF498"/>
<path d="M73.9002 36.7099C73.8202 36.7899 73.7502 36.8899 73.7002 36.9999C73.7002 36.9999 73.6802 36.9999 73.6702 37.0099C73.7002 36.6099 73.5502 36.2799 73.4602 36.1299C73.4702 36.0199 73.4802 35.9199 73.4902 35.8099C73.4902 35.7899 73.4602 35.7799 73.4502 35.8099C73.4202 35.8799 73.4002 35.9599 73.3902 36.0399C73.3902 36.0399 73.3802 36.0399 73.3702 36.0399C73.3702 36.0399 73.3702 36.0399 73.3602 36.0399C73.3602 35.6399 73.1502 35.2699 73.0802 35.1499C73.0902 35.0399 73.1102 34.9199 73.1202 34.8099C73.1202 34.7699 73.0702 34.7699 73.0702 34.8099C73.0502 34.9099 73.0402 35.0099 73.0202 35.1099C72.9102 34.8199 72.7102 34.5499 72.6102 34.4199C72.6102 34.2999 72.6102 34.1699 72.6102 34.0499C72.6102 34.0199 72.5702 34.0199 72.5602 34.0499C72.5402 34.1499 72.5402 34.2399 72.5402 34.3399C72.5402 34.3399 72.5302 34.3399 72.5202 34.3399C72.3102 33.9099 71.7802 33.5199 71.7502 33.4999C71.7102 33.3999 71.6802 33.2999 71.6402 33.1999C71.6402 33.1799 71.6002 33.1999 71.6102 33.2199C71.6502 33.3299 71.6802 33.4399 71.7202 33.5499C71.6302 33.8099 71.6202 34.1299 71.6802 34.4599C71.6702 34.4599 71.6602 34.4599 71.6602 34.4599C71.6502 34.4599 71.6402 34.4599 71.6402 34.4699C71.5802 34.3999 71.5102 34.3399 71.4402 34.2799C71.4202 34.2599 71.3902 34.2999 71.4102 34.3199C71.4802 34.3899 71.5502 34.4599 71.6202 34.5299C71.5802 34.7499 71.6402 35.0299 71.6902 35.2099C71.6302 35.1399 71.5702 35.0699 71.5102 35.0099C71.5002 34.9999 71.4702 35.0099 71.4902 35.0299C71.5602 35.0999 71.6202 35.1699 71.6702 35.2499C71.5702 35.5199 71.6702 35.8099 71.7502 35.9999C71.7402 35.9999 71.7302 35.9999 71.7302 36.0199C71.6602 35.9699 71.5902 35.9199 71.5202 35.8699C71.5002 35.8599 71.4802 35.8899 71.5002 35.8999C71.5802 35.9499 71.6502 36.0099 71.7202 36.0699C71.6702 36.3299 71.7402 36.5399 71.8002 36.6699H71.7902C71.7902 36.6699 71.7802 36.6699 71.7702 36.6699C71.7702 36.6699 71.7702 36.6699 71.7702 36.6899C71.7702 36.6899 71.7702 36.6899 71.7702 36.6999C71.7002 36.6399 71.6302 36.5899 71.5602 36.5399C71.5402 36.5299 71.5202 36.5599 71.5402 36.5699C71.6202 36.6299 71.7002 36.6899 71.7702 36.7499C71.7702 37.1099 71.9902 37.5599 72.1102 37.7899C72.1102 37.7899 72.0902 37.7899 72.0802 37.7899C72.0102 37.7299 71.9302 37.6599 71.8702 37.5899C71.8502 37.5699 71.8202 37.5899 71.8402 37.6199C71.9102 37.6899 71.9902 37.7599 72.0602 37.8299C72.0602 37.9299 72.0902 38.3199 72.2902 38.6699C72.2202 38.6199 72.1502 38.5699 72.0702 38.5199C72.0502 38.5099 72.0202 38.5399 72.0502 38.5599C72.1402 38.6199 72.2302 38.6799 72.3102 38.7499C72.2602 38.9399 72.3202 39.1299 72.3802 39.2599C72.3802 39.2599 72.3802 39.2699 72.3802 39.2799C72.3802 39.6699 72.6302 40.0099 72.8502 40.1999C73.0302 40.3499 73.2202 40.4299 73.3602 40.4099C73.3902 40.4099 73.4202 40.3999 73.4502 40.3899C74.0502 40.1899 74.0802 39.0699 74.0802 39.0199C74.0802 39.0199 74.0802 39.0099 74.0802 38.9999C74.0802 38.9999 74.0702 38.9999 74.0602 38.9999H74.0502C74.0502 38.9999 74.0202 39.0199 74.0102 39.0199C74.0902 38.6499 74.0102 38.2599 73.9802 38.0799C73.9802 38.0799 73.9802 38.0799 73.9802 38.0699C74.0102 37.9799 74.0702 37.9099 74.1102 37.8299C74.1102 37.8099 74.0902 37.7999 74.0802 37.8099C74.0302 37.8599 73.9902 37.9199 73.9502 37.9899C73.9502 37.6399 73.8602 37.1699 73.8402 37.0399C73.8802 36.9299 73.9402 36.8299 74.0202 36.7399C74.0402 36.7199 74.0202 36.6799 73.9902 36.6999L73.9002 36.7099ZM73.8202 38.0099C73.5302 38.1599 73.3302 38.4099 73.1902 38.6499C73.1402 38.5099 73.0602 38.3399 72.9202 38.1899C72.9602 37.9399 73.1202 37.2799 73.7102 37.0399C73.7302 37.1599 73.8302 37.6599 73.8202 38.0099ZM73.8502 38.0499C73.8802 38.1599 74.0002 38.6299 73.9002 39.0699C73.5702 39.2099 73.3902 39.4799 73.3002 39.6699C73.2702 39.4299 73.1702 39.2499 73.0502 39.1199C73.1202 38.8999 73.3402 38.3099 73.8602 38.0499H73.8502ZM73.3802 40.3799C73.3802 40.3799 73.3202 40.3999 73.2902 40.3999C73.1602 40.4199 72.9802 40.3399 72.8102 40.1999C72.6002 40.0199 72.3702 39.7099 72.3602 39.3399C72.4702 39.3699 72.9202 39.4899 73.2202 39.8699C73.2202 39.8699 73.2302 39.8699 73.2402 39.8699C73.2402 39.8699 73.2502 39.8699 73.2602 39.8499C73.2602 39.8499 73.4202 39.2499 73.9802 39.0599C73.9802 39.2399 73.9002 40.1899 73.3802 40.3599V40.3799ZM72.3102 38.7699C72.4402 38.7899 73.2202 38.9799 73.2602 39.7399C73.2502 39.7699 73.2402 39.7999 73.2302 39.8199C72.9302 39.4699 72.5102 39.3399 72.3802 39.2999C72.3102 39.1699 72.2502 38.9599 72.3002 38.7699H72.3102ZM72.0602 37.8599C72.8102 37.9199 73.0802 38.3899 73.1702 38.6999C73.0902 38.8499 73.0402 38.9899 73.0102 39.0799C72.7402 38.8199 72.3902 38.7399 72.3102 38.7299C72.0902 38.3799 72.0602 37.9599 72.0602 37.8599ZM71.7402 36.0599C71.8602 36.0799 72.5602 36.2099 72.7802 36.8499C72.7302 36.9699 72.7002 37.0899 72.6802 37.1699C72.3802 36.8999 71.9902 36.7599 71.8402 36.7099C71.7702 36.5799 71.6802 36.3599 71.7502 36.0599H71.7402ZM71.7002 35.2699C71.8102 35.2999 72.3802 35.4499 72.6002 35.8999C72.5402 36.0699 72.5102 36.2299 72.4802 36.3499C72.2202 36.1299 71.9102 36.0499 71.7802 36.0299C71.6902 35.8499 71.5902 35.5399 71.7002 35.2699ZM72.5002 34.3799C72.4202 34.4699 72.3602 34.5999 72.3202 34.7299C72.1202 34.5799 71.8502 34.4999 71.7302 34.4699C71.6602 34.1399 71.6802 33.8199 71.7602 33.5599C71.8702 33.6399 72.3202 33.9899 72.5002 34.3799ZM73.0002 35.1599C72.8302 35.3499 72.7102 35.5999 72.6202 35.8499C72.5302 35.6799 72.3902 35.5599 72.2502 35.4599C72.2502 35.2099 72.3002 34.6499 72.5402 34.3999C72.6102 34.4799 72.8802 34.8199 73.0002 35.1599ZM73.0302 37.6899C72.9702 37.4999 72.8502 37.3399 72.7102 37.1999C72.7802 36.9099 72.9802 36.3399 73.3902 36.0799C73.4502 36.1599 73.6902 36.5399 73.6402 37.0299C73.3302 37.1799 73.1402 37.4399 73.0302 37.6899ZM72.8002 36.7899C72.7302 36.6199 72.6302 36.4899 72.5202 36.3799C72.5702 36.1099 72.7202 35.5099 73.0402 35.1699C73.1002 35.2699 73.3202 35.6499 73.3202 36.0699C73.0702 36.2399 72.9002 36.5299 72.8002 36.7899ZM72.3002 34.7799C72.2302 35.0199 72.2102 35.2799 72.2102 35.4399C72.0102 35.3199 71.8202 35.2599 71.7302 35.2399C71.6802 35.0599 71.6002 34.7399 71.6602 34.5199C71.7402 34.5399 72.0702 34.6199 72.2902 34.7899L72.3002 34.7799ZM73.0002 37.7499C72.9402 37.9099 72.9002 38.0499 72.8902 38.1499C72.7202 37.9899 72.4802 37.8599 72.1302 37.8199C72.0102 37.5899 71.7702 37.0999 71.7802 36.7299C71.9402 36.7799 72.8402 37.0699 73.0102 37.7499H73.0002Z" fill="#924B07"/>
<path d="M71.72 34.4698C71.84 34.4998 72.12 34.5798 72.31 34.7298C72.35 34.5998 72.41 34.4698 72.49 34.3798C72.31 33.9998 71.86 33.6398 71.75 33.5598C71.66 33.8198 71.65 34.1398 71.72 34.4698Z" fill="#F9C842"/>
<path d="M71.6701 34.51C71.6101 34.73 71.6801 35.05 71.7401 35.23C71.8201 35.25 72.0201 35.31 72.2201 35.43C72.2201 35.27 72.2401 35.01 72.3101 34.77C72.0901 34.59 71.7601 34.52 71.6801 34.5L71.6701 34.51Z" fill="#F9C842"/>
<path d="M72.25 35.4599C72.39 35.5499 72.53 35.6799 72.62 35.8499C72.7 35.6099 72.83 35.3499 73 35.1599C72.88 34.8099 72.61 34.4799 72.54 34.3999C72.3 34.6499 72.26 35.2099 72.25 35.4599Z" fill="#F9C842"/>
<path d="M72.4902 36.35C72.5102 36.24 72.5502 36.08 72.6102 35.9C72.3902 35.45 71.8202 35.29 71.7102 35.27C71.6102 35.54 71.7102 35.84 71.7902 36.03C71.9202 36.05 72.2302 36.13 72.4902 36.35Z" fill="#F9C842"/>
<path d="M73.05 35.1699C72.73 35.5099 72.58 36.0999 72.53 36.3799C72.64 36.4799 72.74 36.6199 72.81 36.7899C72.92 36.5299 73.08 36.2499 73.33 36.0699C73.33 35.6499 73.11 35.2599 73.05 35.1699Z" fill="#F9C842"/>
<path d="M72.6802 37.1698C72.7002 37.0798 72.7402 36.9698 72.7802 36.8498C72.5602 36.2098 71.8602 36.0798 71.7402 36.0598C71.6702 36.3498 71.7602 36.5798 71.8302 36.7098C71.9902 36.7598 72.3702 36.9098 72.6702 37.1698H72.6802Z" fill="#F9C842"/>
<path d="M73.39 36.0798C72.98 36.3398 72.79 36.9198 72.71 37.1998C72.85 37.3298 72.97 37.4898 73.03 37.6898C73.14 37.4398 73.33 37.1798 73.64 37.0298C73.69 36.5398 73.45 36.1598 73.39 36.0798Z" fill="#F9C842"/>
<path d="M71.78 36.74C71.78 37.11 72.01 37.6 72.13 37.83C72.48 37.87 72.73 38 72.89 38.16C72.91 38.06 72.94 37.92 73 37.76C72.83 37.09 71.94 36.79 71.77 36.74H71.78Z" fill="#F9C842"/>
<path d="M72.9202 38.19C73.0602 38.34 73.1402 38.5 73.1902 38.65C73.3202 38.42 73.5202 38.17 73.8202 38.01C73.8202 37.66 73.7302 37.16 73.7102 37.04C73.1302 37.28 72.9702 37.93 72.9202 38.19Z" fill="#F9C842"/>
<path d="M72.3101 38.7299C72.3801 38.7399 72.7401 38.8199 73.0101 39.0799C73.0401 38.9899 73.0901 38.8499 73.1701 38.6999C73.0801 38.3899 72.8101 37.9199 72.0601 37.8599C72.0601 37.9599 72.0901 38.3699 72.3101 38.7299Z" fill="#F9C842"/>
<path d="M73.04 39.11C73.17 39.24 73.26 39.42 73.29 39.66C73.38 39.47 73.56 39.2 73.89 39.06C73.99 38.62 73.87 38.15 73.84 38.04C73.32 38.3 73.1 38.89 73.03 39.11H73.04Z" fill="#F9C842"/>
<path d="M73.2301 39.82C73.2301 39.82 73.2501 39.77 73.2601 39.74C73.2201 38.98 72.4401 38.79 72.3101 38.77C72.2501 38.97 72.3201 39.17 72.3901 39.3C72.5201 39.33 72.9401 39.46 73.2401 39.82H73.2301Z" fill="#F9C842"/>
<path d="M73.2601 39.8699C73.2601 39.8699 73.2601 39.8799 73.2401 39.8899H73.2201C72.9101 39.5099 72.4701 39.3799 72.3601 39.3599C72.3801 39.7199 72.6001 40.0399 72.8101 40.2199C72.9801 40.3599 73.1601 40.4399 73.2901 40.4199C73.3201 40.4199 73.3501 40.4099 73.3801 40.3999C73.9001 40.2299 73.9701 39.2799 73.9801 39.0999C73.4201 39.2899 73.2601 39.8899 73.2601 39.8899V39.8699Z" fill="#F9C842"/>
<path d="M72.5002 34.3799C72.4702 34.3099 72.4302 34.2399 72.3802 34.1799C72.3802 34.2499 72.3602 34.3099 72.3202 34.3599C72.2602 34.4299 72.1702 34.4599 72.0802 34.4499C71.9902 34.4499 71.9102 34.4099 71.8402 34.3599C71.7902 34.3299 71.7402 34.2799 71.6902 34.2399C71.6902 34.3199 71.7102 34.3999 71.7202 34.4799C71.8402 34.5099 72.1202 34.5899 72.3102 34.7399C72.3502 34.6099 72.4102 34.4799 72.4902 34.3899L72.5002 34.3799Z" fill="#FAA819"/>
<path d="M73 35.1599C72.97 35.0799 72.94 35.0099 72.9 34.9299C72.88 34.9999 72.84 35.0599 72.81 35.1199C72.74 35.2299 72.63 35.3199 72.51 35.3399C72.42 35.3499 72.32 35.3099 72.27 35.2399C72.27 35.3299 72.26 35.4099 72.26 35.4699C72.4 35.5599 72.54 35.6899 72.63 35.8599C72.71 35.6199 72.84 35.3599 73.01 35.1699L73 35.1599Z" fill="#FAA819"/>
<path d="M72.21 35.4299C72.21 35.2699 72.23 35.0099 72.3 34.7699C72.26 34.7399 72.21 34.7099 72.17 34.6799C72.17 34.7799 72.17 34.8899 72.11 34.9699C72.05 35.0599 71.94 35.1199 71.84 35.1399C71.8 35.1399 71.76 35.1399 71.72 35.1399C71.72 35.1699 71.73 35.1899 71.74 35.2199C71.82 35.2399 72.02 35.2999 72.22 35.4199L72.21 35.4299Z" fill="#FAA819"/>
<path d="M73.32 35.9399C73.17 36.0799 72.98 36.1799 72.78 36.2099C72.74 36.2099 72.7 36.2199 72.67 36.2099C72.63 36.1899 72.6 36.1599 72.58 36.1099C72.55 36.2099 72.53 36.3099 72.52 36.3799C72.63 36.4799 72.73 36.6199 72.8 36.7899C72.91 36.5299 73.07 36.2499 73.32 36.0699C73.32 36.0199 73.32 35.9799 73.32 35.9299V35.9399Z" fill="#FAA819"/>
<path d="M72.46 35.6899C72.46 35.7499 72.46 35.8199 72.43 35.8699C72.34 36.0099 72.14 36.0399 71.98 35.9999C71.9 35.9799 71.82 35.9499 71.74 35.9199C71.75 35.9599 71.77 35.9899 71.78 36.0199C71.91 36.0399 72.22 36.1199 72.48 36.3399C72.5 36.2299 72.54 36.0699 72.6 35.8899C72.56 35.8099 72.51 35.7399 72.46 35.6799V35.6899Z" fill="#FAA819"/>
<path d="M73.64 36.8799C73.54 36.9899 73.41 37.0799 73.27 37.1199C73.17 37.1499 73.06 37.1699 72.97 37.1199C72.89 37.0899 72.82 37.0099 72.8 36.9299C72.76 37.0299 72.74 37.1199 72.72 37.1899C72.86 37.3199 72.98 37.4799 73.04 37.6799C73.15 37.4299 73.34 37.1699 73.65 37.0199C73.65 36.9699 73.65 36.9199 73.65 36.8699L73.64 36.8799Z" fill="#FAA819"/>
<path d="M72.78 36.85C72.74 36.73 72.68 36.63 72.61 36.54C72.6 36.57 72.59 36.61 72.57 36.64C72.53 36.69 72.48 36.72 72.42 36.73C72.3 36.77 72.16 36.76 72.04 36.72C71.95 36.69 71.87 36.65 71.78 36.61C71.8 36.65 71.81 36.68 71.83 36.71C71.99 36.76 72.37 36.91 72.67 37.17C72.69 37.08 72.73 36.97 72.77 36.85H72.78Z" fill="#FAA819"/>
<path d="M73.8202 37.8499C73.6702 37.9699 73.5102 38.0599 73.3202 38.0799C73.2602 38.0799 73.2002 38.0799 73.1502 38.0699C73.0702 38.0399 73.0202 37.9699 73.0002 37.8999C72.9602 38.0199 72.9402 38.1299 72.9302 38.1999C73.0702 38.3499 73.1502 38.5099 73.2002 38.6599C73.3302 38.4299 73.5302 38.1799 73.8302 38.0199C73.8302 37.9699 73.8302 37.9099 73.8302 37.8599L73.8202 37.8499Z" fill="#FAA819"/>
<path d="M72.82 37.3899C72.82 37.3899 72.79 37.4699 72.77 37.5099C72.72 37.5999 72.67 37.6999 72.57 37.7399C72.49 37.7799 72.4 37.7699 72.31 37.7499C72.22 37.7299 72.12 37.6999 72.04 37.6699C72.07 37.7299 72.09 37.7799 72.12 37.8199C72.47 37.8599 72.72 37.9899 72.88 38.1499C72.9 38.0499 72.93 37.9099 72.99 37.7499C72.96 37.6099 72.89 37.4899 72.81 37.3899H72.82Z" fill="#FAA819"/>
<path d="M73.93 38.82C73.82 38.94 73.69 39.03 73.53 39.07C73.46 39.08 73.39 39.08 73.33 39.05C73.25 39.01 73.2 38.94 73.18 38.86C73.18 38.84 73.18 38.81 73.17 38.79C73.11 38.92 73.07 39.03 73.04 39.11C73.17 39.24 73.26 39.42 73.29 39.66C73.38 39.47 73.56 39.2 73.89 39.06C73.91 38.98 73.92 38.9 73.92 38.82H73.93Z" fill="#FAA819"/>
<path d="M72.31 38.7299C72.38 38.7399 72.74 38.8199 73.01 39.0799C73.04 38.9899 73.09 38.8499 73.17 38.6999C73.15 38.6199 73.11 38.5299 73.06 38.4399C73.04 38.5099 73.01 38.5699 72.95 38.6099C72.84 38.7099 72.68 38.7199 72.54 38.6899C72.44 38.6699 72.34 38.6299 72.24 38.5899C72.26 38.6399 72.29 38.6899 72.32 38.7299H72.31Z" fill="#FAA819"/>
<path d="M73.1501 39.3299C73.1501 39.3299 73.0801 39.3599 73.0501 39.3699C72.9201 39.4099 72.7701 39.3799 72.6401 39.3299C72.5301 39.2899 72.4301 39.2199 72.3301 39.1599C72.3501 39.2099 72.3701 39.2599 72.3901 39.2999C72.5201 39.3299 72.9401 39.4599 73.2401 39.8199C73.2401 39.7999 73.2601 39.7699 73.2701 39.7399C73.2701 39.5799 73.2201 39.4399 73.1601 39.3299H73.1501Z" fill="#FAA819"/>
<path d="M73.88 39.7C73.88 39.7 73.87 39.7199 73.86 39.7299C73.78 39.8799 73.68 40.0299 73.53 40.1199C73.37 40.2199 73.15 40.2399 72.97 40.1699C72.89 40.1399 72.83 40.0899 72.76 40.0499C72.68 39.9899 72.6 39.9199 72.52 39.8499C72.6 39.9899 72.71 40.11 72.81 40.2C72.98 40.34 73.16 40.42 73.29 40.4C73.32 40.4 73.35 40.39 73.38 40.38C73.65 40.29 73.8 39.99 73.88 39.7Z" fill="#FAA819"/>
<path d="M72.04 33.8799C72.04 33.8799 71.98 33.8099 71.94 33.7699C71.9 33.7299 71.87 33.6899 71.82 33.6599C71.79 33.6399 71.77 33.6799 71.79 33.7099C71.83 33.7499 71.86 33.7899 71.9 33.8299C71.93 33.8699 71.96 33.8999 72 33.9199C72.03 33.9299 72.06 33.8999 72.04 33.8799Z" fill="#FDF498"/>
<path d="M72.15 34.0598C72.15 34.0598 72.14 34.0398 72.13 34.0298C72.12 33.9898 72.06 34.0298 72.08 34.0498C72.09 34.0598 72.1 34.0798 72.12 34.0898C72.14 34.0998 72.16 34.0898 72.15 34.0698V34.0598Z" fill="#FDF498"/>
<path d="M72.5602 34.5498C72.5602 34.5498 72.5002 34.5498 72.5102 34.5798C72.5302 34.6198 72.5702 34.6498 72.6002 34.6898C72.6202 34.7098 72.6502 34.6898 72.6502 34.6598C72.6302 34.6098 72.5902 34.5898 72.5602 34.5498Z" fill="#FDF498"/>
<path d="M71.77 34.6199C71.77 34.6199 71.76 34.6099 71.75 34.5999C71.74 34.5999 71.72 34.5999 71.72 34.6199C71.72 34.6199 71.72 34.6299 71.72 34.6399C71.72 34.6599 71.72 34.6699 71.72 34.6899C71.72 34.7199 71.72 34.7599 71.74 34.7899C71.76 34.8199 71.79 34.7899 71.8 34.7699C71.8 34.7299 71.8 34.6999 71.8 34.6699C71.8 34.6499 71.8 34.6299 71.79 34.6199H71.77Z" fill="#FDF498"/>
<path d="M71.78 35.39C71.78 35.39 71.75 35.46 71.74 35.5C71.74 35.54 71.74 35.59 71.77 35.63C71.79 35.65 71.83 35.64 71.83 35.61C71.83 35.58 71.83 35.54 71.83 35.51C71.83 35.48 71.83 35.45 71.83 35.41C71.83 35.38 71.8 35.38 71.78 35.39Z" fill="#FDF498"/>
<path d="M73.09 35.36C73.09 35.36 73.03 35.34 73.03 35.38C73.05 35.47 73.08 35.57 73.13 35.65C73.14 35.68 73.19 35.66 73.19 35.63C73.17 35.54 73.13 35.45 73.1 35.36H73.09Z" fill="#FDF498"/>
<path d="M71.77 36.1699C71.75 36.2399 71.77 36.3199 71.79 36.3899C71.79 36.4199 71.84 36.4199 71.84 36.3899C71.84 36.3199 71.84 36.2499 71.83 36.1799C71.83 36.1499 71.78 36.1399 71.77 36.1799V36.1699Z" fill="#FDF498"/>
<path d="M71.8801 36.9098C71.8401 36.9898 71.9001 37.1398 71.9401 37.2098C71.9601 37.2398 72.0001 37.2198 72.0001 37.1898C72.0001 37.1398 71.9801 37.0998 71.9601 37.0598C71.9401 37.0098 71.9301 36.9698 71.9301 36.9198C71.9301 36.8998 71.8901 36.8898 71.8801 36.9098Z" fill="#FDF498"/>
<path d="M72.0501 37.2999C72.0501 37.2999 72.0001 37.2899 72.0101 37.3099C72.0101 37.3299 72.0201 37.3599 72.0401 37.3799C72.0501 37.3999 72.0801 37.3799 72.0801 37.3699C72.0801 37.3499 72.0701 37.3199 72.0601 37.2999H72.0501Z" fill="#FDF498"/>
<path d="M73.42 36.27C73.42 36.27 73.34 36.25 73.35 36.29C73.37 36.36 73.39 36.43 73.42 36.48C73.44 36.51 73.49 36.49 73.48 36.46C73.48 36.39 73.44 36.33 73.41 36.26L73.42 36.27Z" fill="#FDF498"/>
<path d="M73.48 36.6199C73.48 36.6199 73.48 36.6699 73.49 36.6899C73.49 36.7099 73.53 36.7099 73.54 36.6899C73.54 36.6599 73.54 36.6399 73.54 36.6099C73.54 36.5799 73.48 36.5899 73.48 36.6199Z" fill="#FDF498"/>
<path d="M72.2201 38.0498H72.1801C72.1601 38.1198 72.1901 38.2098 72.2201 38.2698C72.2301 38.2998 72.2801 38.2898 72.2701 38.2698C72.2701 38.2298 72.2601 38.1998 72.2501 38.1598C72.2501 38.1298 72.2401 38.0898 72.2201 38.0598V38.0498Z" fill="#FDF498"/>
<path d="M72.2402 38.43C72.2402 38.43 72.2402 38.45 72.2502 38.45C72.2602 38.47 72.3002 38.45 72.2902 38.44C72.2902 38.44 72.2902 38.42 72.2902 38.41C72.2902 38.36 72.2202 38.39 72.2402 38.43Z" fill="#FDF498"/>
<path d="M73.61 37.2398C73.63 37.3098 73.63 37.3898 73.64 37.4698C73.64 37.4998 73.69 37.5098 73.7 37.4698C73.7 37.3798 73.7 37.2998 73.67 37.2198C73.66 37.1798 73.59 37.1998 73.61 37.2398Z" fill="#FDF498"/>
<path d="M72.6701 39.06C72.6101 38.99 72.5301 38.91 72.4401 38.87C72.4101 38.86 72.3901 38.9 72.4201 38.92C72.5001 38.97 72.5601 39.04 72.6401 39.1C72.6601 39.12 72.7001 39.09 72.6801 39.06H72.6701Z" fill="#FDF498"/>
<path d="M73.5602 38.4C73.4602 38.44 73.4402 38.59 73.4202 38.68C73.4202 38.72 73.4702 38.73 73.4802 38.69C73.4902 38.65 73.5102 38.6 73.5302 38.56C73.5502 38.52 73.5802 38.49 73.6002 38.44C73.6102 38.42 73.5902 38.38 73.5602 38.39V38.4Z" fill="#FDF498"/>
<path d="M73.68 38.26C73.68 38.26 73.63 38.27 73.62 38.3C73.6 38.34 73.67 38.38 73.68 38.33C73.68 38.31 73.7 38.3 73.69 38.28C73.69 38.28 73.68 38.26 73.67 38.26H73.68Z" fill="#FDF498"/>
<path d="M72.8601 39.72C72.8601 39.72 72.7801 39.65 72.7401 39.63C72.6901 39.6 72.6401 39.55 72.5901 39.51C72.5701 39.49 72.5401 39.51 72.5601 39.54C72.5901 39.59 72.6301 39.62 72.6801 39.66C72.7301 39.7 72.7801 39.73 72.8301 39.77C72.8601 39.79 72.8801 39.75 72.8601 39.73V39.72Z" fill="#FDF498"/>
<path d="M73.73 39.28C73.6 39.33 73.54 39.48 73.51 39.61C73.51 39.64 73.55 39.66 73.56 39.63C73.58 39.57 73.61 39.52 73.65 39.48C73.69 39.43 73.74 39.39 73.77 39.34C73.79 39.31 73.75 39.27 73.72 39.29L73.73 39.28Z" fill="#FDF498"/>
<path d="M73.8601 39.2C73.8601 39.2 73.8501 39.2 73.8401 39.2C73.8201 39.2 73.8201 39.22 73.8201 39.24C73.8201 39.26 73.8401 39.26 73.8601 39.26C73.8801 39.26 73.8901 39.24 73.9001 39.22C73.9001 39.2 73.8801 39.19 73.8701 39.2H73.8601Z" fill="#FDF498"/>
<path d="M107.88 97.4001C104.22 98.8001 97.66 97.4101 97.25 92.7401C96.91 88.9301 101.98 88.0501 101.46 90.9201C101.24 92.1601 99.91 91.9301 99.61 92.3501C99.23 92.8801 100.31 94.3601 100.74 94.7701C102.83 96.7201 107.15 96.3301 109 94.1901C110.87 92.0301 110.3 87.5801 107.1 87.1201C105.75 86.9301 104.05 87.5101 103.14 87.3601C102.76 87.3001 102.5 87.1601 102.5 86.7401C102.5 85.8401 106.82 81.8901 107.63 80.8301C107.82 80.5801 108.12 80.5101 108 80.0801H100.88C99.49 80.0801 100.35 83.2201 99.77 83.9901C99.24 84.7001 98.24 84.2301 98.25 83.7301V78.4501C98.25 78.4501 98.25 78.1201 98.4 77.9701C98.55 77.8201 98.86 77.8201 98.89 77.8201H111.13C111.82 77.9501 112.21 78.8201 111.73 79.4101L105.64 85.3701L106.65 85.3401C113.94 85.2201 114.04 95.0401 107.89 97.4001H107.88Z" fill="black"/>
<path d="M0 77.6401H7.14L9.89 89.7701L12.63 77.6401H19.77V97.5801H15.32V82.3701L11.89 97.5801H7.86L4.44 82.3701V97.5801H0V77.6401Z" fill="black"/>
<path d="M22.55 87.62C22.55 84.36 23.3501 81.83 24.9501 80.02C26.5501 78.21 28.77 77.3 31.63 77.3C34.49 77.3 36.81 78.19 38.39 79.97C39.97 81.75 40.76 84.25 40.76 87.46C40.76 89.79 40.4101 91.7 39.7201 93.19C39.0301 94.68 38.0301 95.84 36.7201 96.67C35.4101 97.5 33.7801 97.91 31.84 97.91C29.9 97.91 28.22 97.55 26.92 96.84C25.62 96.12 24.57 94.99 23.76 93.44C22.95 91.89 22.55 89.95 22.55 87.62ZM27.98 87.65C27.98 89.66 28.31 91.11 28.97 91.99C29.63 92.87 30.53 93.31 31.66 93.31C32.79 93.31 33.73 92.88 34.37 92.02C35.01 91.16 35.3301 89.61 35.3301 87.38C35.3301 85.5 35.0001 84.13 34.3301 83.27C33.6601 82.41 32.76 81.97 31.6101 81.97C30.4601 81.97 29.64 82.41 28.97 83.29C28.3 84.17 27.97 85.62 27.97 87.66L27.98 87.65Z" fill="black"/>
<path d="M42.74 90.98L47.91 90.61C48.02 91.56 48.25 92.29 48.59 92.79C49.15 93.6 49.95 94 50.99 94C51.76 94 52.36 93.79 52.78 93.38C53.2 92.97 53.41 92.49 53.41 91.95C53.41 91.41 53.21 90.97 52.81 90.56C52.41 90.15 51.48 89.77 50.03 89.4C47.65 88.79 45.95 87.99 44.93 86.98C43.91 85.97 43.4 84.69 43.4 83.13C43.4 82.11 43.66 81.14 44.18 80.23C44.7 79.32 45.49 78.6 46.54 78.08C47.59 77.56 49.03 77.3 50.86 77.3C53.11 77.3 54.82 77.77 56 78.72C57.18 79.67 57.88 81.18 58.1 83.24L52.98 83.58C52.84 82.68 52.56 82.03 52.12 81.62C51.68 81.21 51.08 81.01 50.32 81.01C49.69 81.01 49.21 81.16 48.89 81.47C48.57 81.78 48.41 82.14 48.41 82.58C48.41 82.9 48.54 83.18 48.81 83.44C49.07 83.7 49.67 83.95 50.63 84.17C53 84.75 54.7 85.34 55.73 85.93C56.76 86.52 57.5 87.26 57.97 88.14C58.44 89.02 58.67 90 58.67 91.09C58.67 92.37 58.36 93.55 57.73 94.63C57.1 95.71 56.23 96.53 55.12 97.09C54 97.65 52.59 97.93 50.89 97.93C47.9 97.93 45.83 97.28 44.68 95.97C43.53 94.66 42.88 93 42.73 90.99L42.74 90.98Z" fill="black"/>
<path d="M72.2299 94.2901H66.0599L65.1999 97.5801H59.6499L66.2599 77.6401H72.1799L78.7799 97.5801H73.0899L72.2099 94.2901H72.2299ZM71.0999 89.9801L69.1599 82.8101L67.2399 89.9801H71.0999Z" fill="black"/>
<path d="M80.5 77.6401H89.53C91.5 77.6401 92.97 78.1701 93.95 79.2301C94.93 80.2901 95.42 81.8001 95.42 83.7601C95.42 85.7201 94.89 87.3501 93.82 88.4801C92.75 89.6101 91.12 90.1801 88.93 90.1801H85.96V97.5801H80.5V77.6401ZM85.95 86.1401H87.28C88.33 86.1401 89.06 85.9301 89.49 85.5201C89.91 85.1101 90.13 84.5801 90.13 83.9401C90.13 83.3001 89.95 82.7801 89.58 82.3501C89.21 81.9201 88.52 81.7001 87.51 81.7001H85.96V86.1501L85.95 86.1401Z" fill="black"/>
<path d="M9.88 106.2L11.81 101.17H12.53L14.59 106.2H13.83L13.24 104.68H11.14L10.59 106.2H9.88ZM11.34 104.13H13.05L12.52 102.74C12.36 102.32 12.24 101.97 12.16 101.7C12.1 102.02 12.01 102.34 11.89 102.66L11.34 104.14V104.13Z" fill="black"/>
<path d="M17.48 104.22V103.63H19.61V105.49C19.28 105.75 18.95 105.95 18.6 106.08C18.25 106.21 17.89 106.28 17.53 106.28C17.04 106.28 16.59 106.17 16.18 105.96C15.78 105.75 15.47 105.44 15.27 105.04C15.07 104.64 14.96 104.19 14.96 103.7C14.96 103.21 15.06 102.75 15.27 102.33C15.48 101.91 15.77 101.59 16.15 101.38C16.53 101.17 16.98 101.07 17.48 101.07C17.84 101.07 18.17 101.13 18.47 101.25C18.76 101.37 18.99 101.53 19.16 101.74C19.33 101.95 19.45 102.22 19.54 102.56L18.94 102.73C18.86 102.47 18.77 102.27 18.66 102.13C18.55 101.99 18.39 101.87 18.18 101.78C17.97 101.69 17.74 101.65 17.49 101.65C17.19 101.65 16.92 101.7 16.7 101.79C16.48 101.88 16.3 102 16.16 102.16C16.02 102.31 15.92 102.48 15.84 102.66C15.71 102.97 15.65 103.31 15.65 103.67C15.65 104.12 15.73 104.49 15.88 104.8C16.03 105.1 16.26 105.33 16.55 105.47C16.84 105.61 17.16 105.69 17.49 105.69C17.78 105.69 18.06 105.63 18.33 105.52C18.6 105.41 18.81 105.29 18.95 105.16V104.22H17.47H17.48Z" fill="black"/>
<path d="M20.6001 106.2V101.17H22.8301C23.2801 101.17 23.6201 101.22 23.8501 101.31C24.0801 101.4 24.2701 101.56 24.4101 101.79C24.5501 102.02 24.6201 102.27 24.6201 102.55C24.6201 102.91 24.5001 103.21 24.2701 103.45C24.0401 103.69 23.6801 103.85 23.2001 103.92C23.3801 104 23.5101 104.09 23.6001 104.17C23.7901 104.35 23.9801 104.57 24.1501 104.84L25.0301 106.21H24.1901L23.5201 105.16C23.3301 104.86 23.1701 104.63 23.0401 104.47C22.9101 104.31 22.8001 104.2 22.7001 104.13C22.6001 104.07 22.5001 104.02 22.4001 104C22.3201 103.98 22.2001 103.98 22.0301 103.98H21.2601V106.21H20.5901L20.6001 106.2ZM21.2701 103.39H22.7001C23.0001 103.39 23.2401 103.36 23.4101 103.3C23.5801 103.24 23.7101 103.14 23.8001 103C23.8901 102.86 23.9301 102.71 23.9301 102.55C23.9301 102.31 23.8401 102.12 23.6701 101.96C23.5001 101.81 23.2201 101.73 22.8501 101.73H21.2601V103.39H21.2701Z" fill="black"/>
<path d="M25.4599 103.75C25.4599 102.92 25.6799 102.26 26.1299 101.79C26.5799 101.32 27.16 101.08 27.87 101.08C28.33 101.08 28.7499 101.19 29.1299 101.41C29.5099 101.63 29.7899 101.94 29.9799 102.34C30.1799 102.74 30.27 103.19 30.27 103.69C30.27 104.19 30.1699 104.66 29.9599 105.06C29.7499 105.46 29.46 105.77 29.08 105.97C28.7 106.18 28.3 106.28 27.86 106.28C27.39 106.28 26.96 106.17 26.59 105.94C26.22 105.71 25.93 105.4 25.74 105C25.55 104.6 25.45 104.19 25.45 103.74L25.4599 103.75ZM26.15 103.76C26.15 104.37 26.3099 104.84 26.6399 105.19C26.9699 105.54 27.38 105.71 27.87 105.71C28.36 105.71 28.78 105.53 29.11 105.18C29.43 104.83 29.6 104.33 29.6 103.68C29.6 103.27 29.5299 102.91 29.3899 102.61C29.2499 102.31 29.05 102.07 28.78 101.9C28.51 101.73 28.2099 101.65 27.8799 101.65C27.4099 101.65 27 101.81 26.66 102.14C26.32 102.47 26.15 103 26.15 103.76Z" fill="black"/>
<path d="M30.8101 104.69V104.07H32.7101V104.69H30.8101Z" fill="black"/>
<path d="M33.47 106.2V101.17H35.37C35.7 101.17 35.96 101.19 36.13 101.22C36.38 101.26 36.58 101.34 36.75 101.45C36.92 101.57 37.05 101.73 37.15 101.94C37.25 102.15 37.3 102.38 37.3 102.63C37.3 103.06 37.16 103.42 36.89 103.72C36.62 104.02 36.13 104.16 35.42 104.16H34.13V106.2H33.46H33.47ZM34.14 103.56H35.44C35.87 103.56 36.18 103.48 36.36 103.32C36.54 103.16 36.63 102.94 36.63 102.64C36.63 102.43 36.58 102.25 36.47 102.1C36.36 101.95 36.22 101.85 36.05 101.8C35.94 101.77 35.73 101.76 35.43 101.76H34.14V103.56Z" fill="black"/>
<path d="M38.1699 106.2V101.17H41.8099V101.76H38.8399V103.3H41.6199V103.89H38.8399V105.6H41.9299V106.19H38.1799L38.1699 106.2Z" fill="black"/>
<path d="M46.4299 104.43L47.0999 104.6C46.9599 105.15 46.7099 105.56 46.3499 105.85C45.9899 106.14 45.5399 106.28 45.0199 106.28C44.4999 106.28 44.0399 106.17 43.6999 105.95C43.3599 105.73 43.0999 105.41 42.9199 104.99C42.7399 104.57 42.6499 104.12 42.6499 103.64C42.6499 103.12 42.7499 102.66 42.9499 102.27C43.1499 101.88 43.4299 101.58 43.7999 101.38C44.1699 101.18 44.5799 101.08 45.0199 101.08C45.5199 101.08 45.9499 101.21 46.2899 101.46C46.6299 101.72 46.8699 102.08 47.0099 102.54L46.3499 102.69C46.2299 102.32 46.0599 102.06 45.8399 101.89C45.6199 101.72 45.3399 101.64 44.9999 101.64C44.6099 101.64 44.2899 101.73 44.0299 101.92C43.7699 102.11 43.5899 102.35 43.4799 102.67C43.3699 102.98 43.3199 103.3 43.3199 103.64C43.3199 104.07 43.3799 104.44 43.5099 104.76C43.6299 105.08 43.8299 105.32 44.0899 105.47C44.3499 105.63 44.6399 105.71 44.9399 105.71C45.3099 105.71 45.6299 105.6 45.8899 105.39C46.1499 105.18 46.3199 104.86 46.4099 104.43H46.4299Z" fill="black"/>
<path d="M51.2199 101.17H51.8899V104.08C51.8899 104.59 51.8299 104.99 51.7199 105.28C51.6099 105.58 51.3999 105.82 51.0999 106.01C50.7999 106.2 50.4099 106.29 49.9199 106.29C49.4299 106.29 49.0599 106.21 48.7599 106.05C48.4599 105.89 48.2499 105.65 48.1199 105.34C47.9899 105.03 47.9299 104.61 47.9299 104.08V101.17H48.5999V104.07C48.5999 104.51 48.6399 104.83 48.7199 105.04C48.7999 105.25 48.9399 105.41 49.1399 105.52C49.3399 105.63 49.5799 105.69 49.8699 105.69C50.3599 105.69 50.7099 105.58 50.9199 105.36C51.1299 105.14 51.2299 104.71 51.2299 104.08V101.18L51.2199 101.17Z" fill="black"/>
<path d="M52.4399 106.2L54.3699 101.17H55.0899L57.1499 106.2H56.3899L55.7999 104.68H53.6999L53.1499 106.2H52.4399ZM53.8899 104.13H55.5999L55.0699 102.74C54.9099 102.32 54.7899 101.97 54.7099 101.7C54.6499 102.02 54.5599 102.34 54.4399 102.66L53.8899 104.14V104.13ZM54.3099 100.86L54.7699 99.9001H55.5799L54.8299 100.86H54.3199H54.3099Z" fill="black"/>
<path d="M57.6899 106.2V101.17H59.9199C60.3699 101.17 60.7099 101.22 60.9399 101.31C61.1699 101.4 61.3599 101.56 61.4999 101.79C61.6399 102.02 61.7099 102.27 61.7099 102.55C61.7099 102.91 61.5899 103.21 61.3599 103.45C61.1299 103.69 60.7699 103.85 60.2899 103.92C60.4699 104 60.5999 104.09 60.6899 104.17C60.8799 104.35 61.0699 104.57 61.2399 104.84L62.1199 106.21H61.2799L60.6099 105.16C60.4199 104.86 60.2599 104.63 60.1299 104.47C60.0099 104.31 59.8899 104.2 59.7899 104.13C59.6899 104.07 59.5899 104.02 59.4899 104C59.4099 103.98 59.2899 103.98 59.1199 103.98H58.3499V106.21H57.6799L57.6899 106.2ZM58.3599 103.39H59.7899C60.0899 103.39 60.3299 103.36 60.4999 103.3C60.6699 103.24 60.7999 103.14 60.8899 103C60.9799 102.86 61.0199 102.71 61.0199 102.55C61.0199 102.31 60.9299 102.12 60.7599 101.96C60.5899 101.8 60.3099 101.73 59.9399 101.73H58.3499V103.39H58.3599Z" fill="black"/>
<path d="M62.8701 106.2V101.17H63.5401V106.2H62.8701Z" fill="black"/>
<path d="M64.1499 106.2L66.0799 101.17H66.7999L68.8599 106.2H68.0999L67.5099 104.68H65.4099L64.8599 106.2H64.1499ZM65.6099 104.13H67.3199L66.7899 102.74C66.6299 102.32 66.5099 101.97 66.4299 101.7C66.3699 102.02 66.2799 102.34 66.1599 102.66L65.6099 104.14V104.13Z" fill="black"/>
<path d="M70.99 106.2V101.17H74.38V101.76H71.65V103.32H74.01V103.91H71.65V106.2H70.98H70.99Z" fill="black"/>
<path d="M74.3101 106.2L76.2401 101.17H76.9601L79.0201 106.2H78.2601L77.6701 104.68H75.5701L75.0201 106.2H74.3101ZM75.7601 104.13H77.4701L76.9401 102.74C76.7801 102.32 76.6601 101.97 76.5801 101.7C76.5201 102.02 76.4301 102.34 76.3101 102.66L75.7601 104.14V104.13Z" fill="black"/>
<path d="M79.53 106.2V101.17H80.53L81.72 104.73C81.83 105.06 81.91 105.31 81.96 105.48C82.02 105.3 82.11 105.03 82.23 104.67L83.44 101.17H84.33V106.2H83.69V101.99L82.23 106.2H81.63L80.17 101.92V106.2H79.53Z" fill="black"/>
<path d="M85.52 106.2V101.17H86.19V106.2H85.52Z" fill="black"/>
<path d="M87.3301 106.2V101.17H88.0001V105.61H90.4801V106.2H87.3401H87.3301Z" fill="black"/>
<path d="M91.3701 106.2V101.17H92.0401V106.2H91.3701Z" fill="black"/>
<path d="M92.6599 106.2L94.5899 101.17H95.3099L97.3699 106.2H96.6099L96.0199 104.68H93.9199L93.3699 106.2H92.6599ZM94.1099 104.13H95.8199L95.2899 102.74C95.1299 102.32 95.0099 101.97 94.9299 101.7C94.8699 102.02 94.7799 102.34 94.6599 102.66L94.1099 104.14V104.13Z" fill="black"/>
<path d="M97.9099 106.2V101.17H100.14C100.59 101.17 100.93 101.22 101.16 101.31C101.39 101.4 101.58 101.56 101.72 101.79C101.86 102.02 101.93 102.27 101.93 102.55C101.93 102.91 101.81 103.21 101.58 103.45C101.35 103.69 100.99 103.85 100.51 103.92C100.69 104 100.82 104.09 100.91 104.17C101.1 104.35 101.29 104.57 101.46 104.84L102.34 106.21H101.5L100.83 105.16C100.64 104.86 100.48 104.63 100.35 104.47C100.23 104.31 100.11 104.2 100.01 104.13C99.9099 104.07 99.8099 104.02 99.7099 104C99.6299 103.98 99.5099 103.98 99.3399 103.98H98.5699V106.21H97.8999L97.9099 106.2ZM98.5799 103.39H100.01C100.31 103.39 100.55 103.36 100.72 103.3C100.89 103.24 101.02 103.14 101.11 103C101.2 102.86 101.24 102.71 101.24 102.55C101.24 102.31 101.15 102.12 100.98 101.96C100.81 101.8 100.53 101.73 100.16 101.73H98.5699V103.39H98.5799Z" fill="black"/>
</g>
<defs>
<clipPath id="clip0_210_353">
<rect width="112.32" height="106.28" fill="white"/>
</clipPath>
</defs>
</svg>
